<svg fill="none"
     height="26"
     viewBox="0 0 185 26"
     width="185"
     xmlns="http://www.w3.org/2000/svg">
  <path d="M14 20H7V9H0V2H14V20ZM28 20H20L27.5 2H35.5L28 20Z"
        fill="black"/>
  <path d="M20 10C22.2091 10 24 8.20914 24 6C24 3.79086 22.2091 2 20 2C17.7909 2 16 3.79086 16 6C16 8.20914 17.7909 10 20 10Z"
        fill="black"/>
  <path d="M43.793 20.024H47.495V5.519H52.338V2.02H39V5.52H43.793V20.024ZM52.343 20.024H55.817V13.964C55.817 11.859 56.907 10.591 58.557 10.591C59.139 10.591 59.596 10.692 60.128 10.87V7.345C59.7493 7.23548 59.3561 7.18423 58.962 7.193C57.542 7.193 56.249 8.131 55.817 9.373V7.346H52.343V20.025V20.024ZM66.796 20.303C68.546 20.303 69.864 19.415 70.448 18.603V20.023H73.922V7.346H70.448V8.766C69.864 7.955 68.546 7.067 66.796 7.067C63.424 7.067 60.837 10.11 60.837 13.685C60.837 17.261 63.424 20.304 66.797 20.304L66.796 20.303ZM67.532 17.133C65.604 17.133 64.336 15.688 64.336 13.685C64.336 11.681 65.604 10.235 67.532 10.235C69.459 10.235 70.727 11.681 70.727 13.685C70.727 15.688 69.459 17.133 67.532 17.133ZM82.193 20.303C83.943 20.303 85.261 19.415 85.844 18.603V20.023H89.318V1.007H85.844V8.767C85.261 7.955 83.943 7.067 82.193 7.067C78.82 7.067 76.233 10.11 76.233 13.685C76.233 17.261 78.82 20.304 82.193 20.304V20.303ZM82.928 17.133C81.001 17.133 79.733 15.688 79.733 13.685C79.733 11.681 81.001 10.235 82.928 10.235C84.855 10.235 86.123 11.681 86.123 13.685C86.123 15.688 84.855 17.133 82.928 17.133ZM94.166 5.412C94.4576 5.41451 94.7469 5.35935 95.0171 5.24969C95.2873 5.14004 95.5332 4.97805 95.7406 4.77305C95.9481 4.56805 96.1129 4.32407 96.2257 4.05514C96.3385 3.78621 96.3971 3.49763 96.398 3.206C96.3971 2.91437 96.3385 2.62579 96.2257 2.35686C96.1129 2.08793 95.9481 1.84395 95.7406 1.63895C95.5332 1.43395 95.2873 1.27196 95.0171 1.16231C94.7469 1.05265 94.4576 0.997495 94.166 1C93.5824 1.0047 93.024 1.23863 92.6113 1.65132C92.1986 2.06401 91.9647 2.62239 91.96 3.206C91.9647 3.78961 92.1986 4.34799 92.6113 4.76068C93.024 5.17337 93.5824 5.4073 94.166 5.412ZM92.442 20.024H95.916V7.49H92.442V20.023V20.024ZM98.998 20.024H102.472V13.837C102.472 11.402 103.664 10.236 105.287 10.236C106.732 10.236 107.519 11.352 107.519 13.177V20.024H110.993V12.594C110.993 9.298 109.167 7.066 106.099 7.066C104.45 7.066 103.157 7.776 102.472 8.79V7.345H98.998V20.024V20.024ZM119.833 16.65C118.083 16.65 116.613 15.331 116.613 13.404C116.613 11.452 118.083 10.158 119.833 10.158C121.583 10.158 123.053 11.452 123.053 13.404C123.053 15.331 121.583 16.65 119.833 16.65ZM119.427 25.5C123.307 25.5 126.249 23.522 126.249 18.957V7.268H122.775V8.688C122.09 7.7 120.72 6.99 119.098 6.99C115.776 6.99 113.113 9.83 113.113 13.405C113.113 16.955 115.776 19.795 119.098 19.795C120.721 19.795 122.09 19.06 122.775 18.122V18.984C122.775 21.013 121.431 22.458 119.377 22.458C117.957 22.458 116.537 21.976 115.421 20.886L113.519 23.472C114.964 24.867 117.221 25.501 119.427 25.501V25.5ZM133.594 20.024H136.864L144.32 2.02H140.263L135.242 14.521L130.145 2.02H126.164L133.594 20.024ZM147.508 5.266C147.8 5.26837 148.089 5.21312 148.359 5.1034C148.629 4.99369 148.875 4.83168 149.082 4.62669C149.289 4.4217 149.454 4.17777 149.567 3.9089C149.68 3.64004 149.738 3.35155 149.739 3.06C149.738 2.76845 149.68 2.47996 149.567 2.2111C149.454 1.94223 149.289 1.6983 149.082 1.49331C148.875 1.28832 148.629 1.12631 148.359 1.0166C148.089 0.906885 147.8 0.851627 147.508 0.854C146.316 0.854 145.301 1.842 145.301 3.06C145.301 4.277 146.316 5.266 147.508 5.266ZM145.783 20.024H149.257V7.345H145.783V20.024ZM158.248 20.303C160.91 20.303 162.939 19.187 164.131 17.463L161.544 15.536C160.961 16.423 159.871 17.133 158.273 17.133C156.6 17.133 155.104 16.195 154.901 14.496H164.384C164.46 13.963 164.435 13.608 164.435 13.304C164.435 9.171 161.519 7.066 158.197 7.066C154.343 7.066 151.528 9.931 151.528 13.684C151.528 17.691 154.47 20.303 158.248 20.303V20.303ZM155.027 12.138C155.357 10.591 156.802 9.931 158.096 9.931C159.389 9.931 160.657 10.616 160.961 12.138H155.027ZM177.45 20.024H180.899L185.083 7.345H181.355L178.972 15.459L176.385 7.345H173.723L171.162 15.459L168.753 7.345H165.05L169.26 20.024H172.708L175.067 12.822L177.45 20.024V20.024Z"
        fill="black"/>
</svg>
