<svg version="1.0" xmlns="http://www.w3.org/2000/svg"
     width="607.000000pt" height="601.000000pt" viewBox="0 0 607.000000 601.000000"
     preserveAspectRatio="xMidYMid meet">

    <g transform="translate(0.000000,601.000000) scale(0.100000,-0.100000)"
       fill="#000000" stroke="none">
        <path d="M2724 5785 c-445 -57 -849 -200 -1176 -417 -80 -53 -135 -96 -131
-102 3 -6 3 -8 -2 -4 -10 9 -45 -15 -155 -106 -105 -86 -310 -290 -310 -308 0
-7 -9 -19 -20 -26 -12 -7 -18 -18 -14 -24 4 -6 3 -8 -3 -5 -8 5 -53 -43 -53
-56 0 -3 -18 -24 -39 -48 -22 -23 -38 -46 -35 -51 3 -4 1 -8 -5 -8 -8 0 -65
-84 -69 -102 -1 -5 -10 -16 -20 -26 -9 -10 -26 -35 -37 -57 -11 -22 -23 -42
-28 -43 -4 -2 -5 -8 -1 -13 3 -5 0 -9 -6 -9 -6 0 -8 -4 -5 -10 3 -5 1 -10 -4
-10 -6 0 -10 -3 -10 -7 3 -19 -2 -34 -10 -29 -8 6 -114 -208 -114 -231 0 -7
-3 -13 -7 -13 -7 0 -35 -71 -32 -82 1 -5 -2 -8 -8 -8 -6 0 -9 -3 -8 -7 1 -5
-3 -17 -8 -28 -40 -73 -129 -397 -155 -565 -22 -134 -19 -724 4 -855 24 -136
78 -348 122 -475 39 -114 184 -414 216 -449 11 -11 17 -21 14 -21 -10 0 64
-109 154 -229 191 -252 402 -459 659 -645 28 -21 52 -35 52 -31 0 3 12 -5 26
-19 15 -13 45 -32 68 -42 23 -10 44 -23 48 -29 4 -5 8 -6 8 -1 0 6 9 0 21 -12
11 -12 24 -20 30 -17 5 4 9 1 9 -5 0 -6 4 -8 10 -5 5 3 10 1 10 -5 0 -7 7 -9
16 -6 8 3 13 2 10 -2 -4 -7 137 -80 168 -87 6 -1 29 -10 50 -19 21 -10 47 -18
57 -19 11 -1 19 -5 19 -10 0 -5 7 -7 15 -4 8 4 17 2 20 -4 4 -5 11 -7 16 -4 5
4 9 2 9 -4 0 -9 56 -27 73 -23 4 1 7 -3 7 -8 0 -6 6 -10 13 -9 6 1 19 -1 27
-4 36 -16 194 -56 202 -51 5 3 14 1 21 -5 12 -10 112 -29 192 -36 22 -2 56 -7
75 -10 34 -6 456 -6 555 0 28 1 70 4 95 5 25 2 51 7 57 13 7 5 29 6 48 3 24
-5 35 -3 35 5 0 7 10 9 30 6 16 -4 32 -2 36 4 3 6 15 9 25 6 11 -3 19 -1 19 5
0 6 9 8 20 5 11 -3 23 -1 26 4 3 6 14 7 25 4 11 -4 19 -2 19 5 0 7 7 9 16 6
18 -7 95 13 105 27 3 4 10 7 15 6 16 -5 74 12 74 21 0 5 6 7 14 4 8 -3 17 0
21 5 3 6 11 9 16 6 5 -4 9 -1 9 5 0 7 7 10 15 6 8 -3 15 -1 15 5 0 6 7 9 15 5
8 -3 15 -1 15 4 0 5 7 7 15 4 8 -4 15 -1 15 5 0 6 7 8 15 5 8 -4 15 -1 15 6 0
6 5 8 10 5 6 -3 10 -1 10 5 0 6 4 9 9 6 5 -4 11 -1 13 4 2 6 13 12 26 13 12 0
22 4 22 7 0 3 10 7 22 7 13 1 24 7 26 13 2 5 8 8 13 4 5 -3 9 -1 9 4 0 6 11
13 25 16 14 4 25 11 25 17 0 6 5 7 10 4 6 -3 10 -1 10 5 0 6 5 8 10 5 6 -3 10
-1 10 5 0 6 5 8 10 5 6 -3 10 -1 10 5 0 6 5 8 10 5 6 -3 10 -1 10 5 0 6 5 8
10 5 6 -3 10 -1 10 5 0 6 4 9 9 6 5 -3 31 12 57 34 29 23 55 38 64 35 8 -4 11
-3 7 1 -9 9 23 33 44 34 9 0 20 7 23 16 3 8 10 12 16 9 5 -3 10 -1 10 4 0 6 5
11 10 11 11 0 24 10 61 43 10 9 23 17 29 17 5 0 14 9 20 20 6 11 15 19 20 17
5 -1 23 14 40 33 17 19 28 28 25 20 -4 -8 3 -3 15 13 12 15 26 27 31 27 5 0
31 21 57 48 26 26 56 52 67 59 11 6 19 16 17 23 -1 6 1 9 6 6 5 -3 24 11 43
31 19 20 27 33 19 28 -8 -4 10 17 40 46 30 29 48 49 40 45 -8 -4 11 17 43 48
31 30 57 59 57 65 0 5 12 19 28 31 15 12 20 19 12 15 -8 -4 -3 5 12 18 15 14
24 28 21 31 -3 3 2 8 11 12 9 3 14 10 11 15 -3 4 4 13 15 19 12 7 19 18 16 25
-3 8 7 23 21 35 14 11 22 20 17 20 -4 0 1 7 12 16 10 8 12 13 4 9 -10 -4 -9
-2 2 8 10 8 15 17 11 20 -3 4 -1 7 6 7 7 0 10 4 6 9 -3 6 3 14 12 20 10 6 15
11 10 11 -11 0 43 100 55 100 5 0 6 5 3 10 -3 6 -1 10 5 10 6 0 8 5 5 10 -3 6
1 13 9 16 9 3 14 10 11 14 -7 11 26 80 37 80 5 0 6 4 3 10 -3 5 -2 10 2 10 5
0 9 10 10 22 1 11 6 24 10 27 4 3 10 15 11 26 2 11 7 22 10 25 4 3 9 16 11 30
1 14 8 28 15 32 6 4 7 8 2 8 -5 0 -3 6 3 13 6 8 8 17 4 20 -3 4 -1 7 6 7 6 0
11 6 10 13 -4 20 13 87 21 87 5 0 6 9 3 20 -3 11 -1 20 4 20 5 0 10 8 10 18
-1 48 4 73 12 68 5 -4 7 3 4 14 -3 11 -1 20 5 20 6 0 8 9 5 20 -3 11 -1 20 4
20 5 0 7 14 5 31 -3 21 -1 30 6 25 7 -4 8 8 5 36 -4 25 -2 39 4 35 5 -3 10 10
11 31 1 20 2 48 2 62 0 14 3 32 7 40 14 37 20 398 8 520 -3 36 -7 81 -9 100
-1 19 -6 43 -10 53 -5 9 -5 28 -2 41 3 14 1 28 -5 31 -6 4 -8 18 -4 32 3 14 1
30 -4 37 -10 12 -11 20 -12 79 -1 15 -5 27 -11 27 -5 0 -6 9 -3 20 4 12 2 20
-5 20 -7 0 -9 8 -5 20 4 12 2 20 -5 20 -7 0 -10 7 -7 15 5 12 -9 68 -30 125
-4 8 -6 18 -5 22 2 9 -57 177 -71 203 -6 11 -10 23 -9 28 1 4 -2 7 -8 7 -6 0
-9 3 -8 8 3 15 -15 62 -24 62 -5 0 -6 5 -3 10 3 6 1 10 -5 10 -6 0 -9 4 -5 9
3 5 -1 16 -9 24 -8 8 -12 17 -9 21 4 3 1 6 -6 6 -7 0 -9 5 -6 10 3 6 1 10 -5
10 -6 0 -8 5 -5 10 3 6 1 10 -4 10 -6 0 -10 3 -10 8 3 19 -2 33 -11 27 -5 -3
-10 3 -10 14 0 12 -9 30 -20 41 -11 11 -20 23 -20 28 0 4 -7 15 -15 25 -8 9
-11 17 -7 17 4 0 1 4 -7 9 -8 5 -16 17 -17 27 -2 9 -9 21 -16 25 -7 5 -9 9 -5
9 16 0 -191 278 -234 314 -15 13 -26 26 -23 29 7 7 -220 231 -286 282 -32 24
-60 41 -64 38 -3 -4 -6 -1 -6 6 0 16 -335 236 -446 293 -201 103 -498 218
-694 268 -261 67 -674 96 -916 65z m546 -180 c30 -3 74 -5 98 -5 23 1 42 -4
42 -10 0 -6 10 -8 25 -4 16 4 25 2 25 -5 0 -7 9 -9 25 -5 15 4 25 2 25 -4 0
-6 8 -11 18 -10 9 0 53 -9 97 -21 44 -12 89 -23 100 -26 11 -2 21 -4 23 -6 1
-1 5 -2 10 -4 4 -1 14 -5 22 -8 44 -19 99 -35 104 -30 3 4 6 1 6 -6 0 -8 6
-11 16 -7 8 3 22 -1 31 -10 9 -8 22 -13 29 -10 8 3 14 1 14 -4 0 -6 3 -9 8 -8
4 1 27 -8 51 -21 24 -13 55 -25 69 -27 13 -3 31 -11 39 -19 8 -8 19 -16 24
-16 5 -1 13 -2 17 -3 5 0 16 -9 26 -19 10 -9 22 -15 27 -12 5 4 9 1 9 -6 0 -7
3 -10 6 -6 3 3 11 1 18 -4 22 -19 238 -149 247 -149 5 0 9 -3 9 -8 0 -4 17
-16 37 -27 21 -11 45 -27 54 -35 9 -8 29 -24 43 -35 56 -42 102 -80 145 -119
24 -23 41 -35 37 -28 -4 7 13 -7 39 -32 25 -25 46 -49 47 -53 0 -4 26 -35 57
-68 191 -205 429 -598 510 -845 18 -52 35 -102 38 -110 3 -8 8 -24 10 -34 2
-10 12 -49 23 -85 85 -284 114 -751 64 -1061 -9 -58 -17 -120 -18 -137 0 -18
-4 -33 -7 -33 -3 0 -12 -26 -19 -57 -7 -32 -31 -114 -53 -183 -23 -69 -42
-127 -42 -130 -3 -8 -34 -79 -70 -157 -19 -40 -31 -73 -27 -73 4 0 2 -4 -4 -8
-6 -4 -26 -34 -44 -67 -34 -64 -144 -231 -182 -279 -13 -15 -51 -61 -85 -102
-35 -40 -63 -77 -64 -81 -1 -11 -248 -238 -351 -322 -297 -243 -738 -438
-1173 -520 -194 -36 -237 -41 -415 -47 -334 -12 -702 52 -1008 175 -220 88
-464 225 -669 377 -138 102 -226 184 -331 309 -42 50 -87 100 -99 112 -13 12
-23 24 -23 27 0 9 -143 210 -154 218 -6 4 -8 8 -4 8 4 0 -7 24 -26 52 -18 29
-48 82 -66 118 -18 36 -36 67 -41 68 -5 2 -7 8 -3 13 3 5 0 9 -5 9 -6 0 -10 3
-9 8 4 12 -56 162 -65 162 -4 0 -5 5 -2 10 3 5 1 10 -5 10 -6 0 -9 4 -6 8 4 7
-33 139 -51 182 -4 8 -8 28 -10 44 -2 17 -7 32 -12 36 -6 3 -10 21 -11 40 0
19 -1 43 -1 53 0 9 -4 17 -9 17 -5 0 -9 12 -9 27 0 16 -3 44 -6 63 -4 19 -8
46 -9 60 -2 14 -4 27 -5 30 -8 14 -13 155 -12 315 0 99 1 211 1 248 0 45 4 66
11 62 7 -5 8 5 4 29 -5 23 -3 36 4 36 6 0 8 7 5 15 -4 8 -1 22 6 30 6 8 9 23
5 35 -4 12 -2 20 5 20 6 0 8 5 5 10 -4 6 -3 19 1 28 4 9 6 27 5 40 -1 12 2 22
8 22 6 0 8 6 5 14 -3 8 -1 17 4 20 6 3 8 15 5 26 -3 11 -1 20 4 20 6 0 8 12 5
26 -3 19 -1 25 6 20 8 -5 10 -2 6 8 -4 9 -1 16 6 16 7 0 10 7 6 15 -3 8 -1 15
5 15 6 0 8 9 4 20 -4 11 -2 20 4 20 6 0 8 7 5 15 -4 8 -1 15 5 15 6 0 8 7 5
15 -4 8 -1 15 5 15 6 0 8 7 5 15 -4 8 -2 15 4 15 5 0 10 6 9 13 -1 32 4 48 13
42 6 -4 7 1 3 11 -4 12 -3 15 5 10 8 -5 10 -2 6 8 -3 9 -2 16 2 16 5 0 10 12
11 26 0 15 6 30 12 34 7 3 14 20 17 36 3 16 9 31 15 32 5 2 7 8 3 13 -3 5 0 9
7 9 7 0 10 3 6 6 -9 9 14 65 24 58 5 -3 6 3 2 12 -5 13 -3 15 7 9 9 -5 11 -4
6 3 -8 14 30 92 45 92 6 0 7 5 4 10 -3 6 -1 10 5 10 6 0 8 5 5 10 -3 6 -1 10
6 10 7 0 9 3 6 7 -4 3 3 18 15 31 13 14 16 22 8 18 -9 -5 -8 -2 2 7 10 8 15
16 13 19 -3 3 6 17 19 31 13 14 21 28 19 31 -3 3 2 8 11 12 9 3 13 10 10 15
-3 5 0 9 5 9 6 0 11 9 11 19 0 11 9 26 20 34 11 8 17 17 14 20 -4 4 1 9 10 13
9 3 14 10 11 14 -3 5 5 16 17 24 12 9 18 16 13 16 -6 1 0 9 12 19 12 10 20 21
17 24 -3 3 3 12 15 19 12 7 21 18 21 24 0 7 19 29 43 50 23 21 41 42 39 47 -1
4 5 10 13 13 8 4 15 13 15 22 0 8 3 13 6 9 9 -9 54 35 47 46 -3 6 -1 7 6 3 7
-4 15 2 20 16 6 13 10 19 10 13 1 -5 8 1 17 13 8 12 22 22 30 22 8 0 20 11 26
25 6 14 17 25 23 25 7 0 30 18 53 41 23 22 46 38 50 35 5 -3 23 8 41 24 18 17
37 30 42 30 6 0 7 4 4 10 -3 5 0 7 9 4 9 -3 19 3 26 16 6 11 15 18 19 15 5 -3
12 2 15 11 4 9 9 14 13 11 3 -4 12 1 20 11 10 11 12 12 8 2 -4 -8 1 -6 9 4 9
11 16 16 16 11 0 -5 6 -1 13 8 6 9 19 17 27 19 8 2 21 10 28 18 12 13 13 13 7
0 -6 -13 -5 -13 7 0 7 8 20 16 28 18 8 2 19 10 23 18 4 8 16 14 26 14 10 0 28
9 41 20 13 12 30 18 37 16 7 -3 13 0 13 6 0 6 3 8 6 5 4 -3 16 -1 28 5 11 7
24 11 29 10 4 -1 7 3 7 9 0 5 5 7 10 4 6 -3 10 -1 10 5 0 7 7 9 16 6 10 -4 13
-2 8 6 -5 8 -2 9 9 5 10 -4 17 -2 17 4 0 6 7 9 15 5 8 -3 15 -1 15 4 0 5 7 7
15 4 8 -4 15 -1 15 6 0 6 4 9 9 5 5 -3 12 -1 16 5 4 6 11 8 16 5 5 -4 9 -1 9
4 0 6 3 10 8 10 4 -1 9 -1 12 1 3 1 16 4 30 6 14 3 27 9 28 14 2 6 8 7 13 4 6
-3 16 0 24 6 8 6 19 9 25 5 5 -3 10 -1 10 5 0 7 8 9 20 5 12 -4 20 -2 20 5 0
7 8 10 20 7 11 -3 20 -1 20 5 0 6 9 8 20 5 11 -3 20 -1 20 5 0 6 11 8 24 4 14
-3 28 -1 31 4 4 6 15 8 26 5 11 -4 19 -2 19 5 0 8 10 9 31 5 22 -5 29 -4 24 4
-4 8 6 11 32 11 47 0 164 8 168 12 5 5 406 -1 465 -7z"/>
        <path d="M2945 5393 c-148 -6 -357 -34 -480 -65 -111 -27 -271 -77 -325 -101
-25 -11 -50 -21 -56 -22 -49 -11 -342 -180 -429 -249 -70 -55 -77 -61 -107
-88 -16 -16 -32 -28 -37 -28 -18 0 -273 -279 -279 -306 -2 -8 -7 -14 -12 -14
-10 0 -150 -204 -150 -219 0 -6 -4 -11 -8 -11 -10 0 -37 -50 -34 -62 1 -5 -2
-8 -7 -8 -8 0 -106 -190 -164 -320 -80 -180 -163 -461 -192 -657 -29 -193 -14
-539 35 -783 25 -123 82 -300 137 -420 44 -99 169 -322 195 -350 11 -11 16
-20 13 -20 -7 0 64 -105 101 -149 110 -129 170 -194 230 -246 119 -105 171
-145 178 -138 3 3 6 0 6 -8 0 -11 2 -11 10 1 8 13 10 13 10 -1 0 -17 98 -99
123 -103 7 -1 24 -12 37 -24 22 -21 34 -26 53 -23 4 0 7 -3 7 -9 0 -17 347
-184 406 -195 11 -2 21 -4 24 -5 3 -1 8 -2 13 -1 4 0 7 -3 7 -8 0 -8 10 -12
70 -27 8 -2 53 -15 100 -29 46 -14 103 -27 125 -29 22 -2 65 -9 95 -16 134
-28 586 -28 740 -1 160 29 349 74 375 89 6 4 19 8 30 9 10 2 23 9 27 16 4 6 8
8 8 3 0 -5 6 -4 13 1 6 6 19 10 27 10 22 0 194 72 198 83 2 6 14 10 27 10 13
0 30 7 38 15 8 8 17 11 21 8 3 -4 6 -1 6 6 0 7 5 9 10 6 6 -3 10 -1 10 5 0 6
4 9 9 6 4 -3 21 5 37 19 15 13 31 22 36 19 4 -3 8 0 8 6 0 6 4 9 9 6 5 -3 12
1 15 9 5 15 53 40 68 37 4 -1 12 7 18 18 6 11 15 18 21 15 5 -4 9 -1 9 5 0 6
4 9 9 6 4 -3 27 12 51 34 24 22 46 37 50 35 4 -3 10 1 13 9 3 8 18 21 34 28
15 8 27 20 26 26 -2 7 5 12 15 12 10 0 38 22 63 50 24 27 49 50 54 50 6 0 24
14 40 32 17 18 23 28 15 23 -8 -4 -12 -5 -8 0 4 4 18 13 30 20 13 6 22 16 21
22 -1 6 18 28 42 49 25 21 45 43 45 50 0 7 11 21 23 31 13 10 23 26 21 36 -1
9 2 15 7 11 5 -3 9 0 9 6 0 6 5 8 10 5 6 -4 10 -3 9 2 -4 21 2 33 16 33 8 0
15 7 15 15 0 8 5 15 11 15 5 0 8 4 4 9 -3 6 3 14 12 20 10 6 14 11 9 11 -5 0
3 12 17 26 15 15 24 30 21 35 -3 5 2 12 10 15 9 3 13 10 10 15 -3 5 2 12 10
15 9 3 13 10 10 15 -3 5 0 9 6 9 6 0 8 4 5 10 -3 5 -1 10 6 10 7 0 10 3 6 6
-3 4 0 13 8 21 8 8 15 23 15 34 0 11 6 22 14 25 8 3 17 13 20 21 5 12 3 13 -7
7 -7 -5 -6 -2 3 6 9 9 15 20 13 26 -2 6 3 17 11 23 8 7 12 20 9 28 -5 12 -3
14 7 8 10 -6 12 -4 7 8 -3 9 1 23 9 32 8 8 12 19 9 25 -3 5 -2 10 2 10 5 0 9
10 10 22 1 11 7 24 13 28 7 4 11 9 10 11 -1 2 4 18 10 34 6 17 16 56 22 88 6
31 13 57 17 57 4 0 8 6 9 13 0 6 3 23 7 37 4 14 7 33 7 42 -1 10 3 20 8 23 4
3 6 14 3 24 -3 10 0 22 6 25 5 4 8 13 4 21 -3 9 0 21 6 29 6 7 9 21 5 29 -3 9
-2 22 2 29 5 7 7 23 5 36 -1 13 3 29 9 37 20 25 17 356 -5 545 -3 25 -8 63
-10 85 -3 22 -5 51 -6 65 0 14 -5 30 -10 36 -5 6 -7 19 -3 27 3 9 2 22 -2 29
-5 7 -9 27 -11 44 -2 34 -70 253 -84 270 -5 6 -6 14 -2 17 3 4 1 7 -6 7 -7 0
-10 4 -7 9 8 12 -25 91 -35 85 -5 -3 -6 1 -3 9 3 8 -2 21 -10 30 -8 8 -12 17
-9 21 4 3 1 6 -5 6 -6 0 -9 7 -6 15 4 8 1 15 -6 15 -6 0 -8 5 -5 10 3 6 1 10
-5 10 -6 0 -8 5 -5 10 3 6 1 10 -6 10 -7 0 -9 3 -6 6 8 8 -24 64 -36 64 -4 0
-5 5 -2 10 3 6 1 10 -5 10 -6 0 -9 4 -6 9 4 5 3 11 -1 13 -5 1 -19 24 -32 51
-13 26 -34 58 -47 72 -13 14 -20 25 -16 25 4 1 -3 9 -15 19 -12 10 -20 21 -18
23 3 3 -13 25 -36 49 -22 24 -39 45 -37 46 2 1 -7 15 -20 32 -13 18 -28 29
-34 25 -6 -4 -8 -3 -5 4 4 5 -6 22 -23 35 -16 14 -30 30 -30 35 0 15 -36 43
-45 35 -4 -5 -5 -3 -2 3 15 26 -189 196 -397 332 -457 300 -942 445 -1421 425z
m567 -242 c31 -28 33 -34 33 -95 0 -81 -19 -105 -92 -116 -26 -4 -231 -8 -454
-9 l-406 -2 -30 25 c-36 31 -66 99 -57 130 10 33 44 77 68 86 11 5 220 9 463
9 l443 1 32 -29z m999 -464 c45 -22 64 -120 33 -178 -25 -49 -59 -57 -271 -61
l-192 -3 -3 -123 -3 -123 -758 1 -757 0 0 -472 c0 -260 4 -477 8 -483 4 -6
144 -10 382 -10 383 -1 440 -3 440 -19 0 -5 3 -7 6 -3 10 10 85 -65 106 -107
25 -48 26 -127 3 -184 -22 -54 -83 -107 -140 -121 -28 -7 -181 -11 -427 -11
l-383 0 0 -667 0 -668 -291 -3 -291 -2 -5 327 c-3 181 -4 816 -2 1413 2 597 4
1178 4 1292 l0 207 43 3 c93 7 2483 2 2498 -5z m-2864 -308 c94 -35 119 -160
47 -233 -21 -21 -36 -26 -74 -26 -91 0 -107 -12 -155 -114 -76 -161 -115 -248
-115 -254 -1 -4 -34 -74 -74 -157 l-73 -150 70 -7 c110 -10 151 -52 144 -146
-3 -38 -10 -60 -26 -75 -20 -21 -32 -22 -192 -25 l-170 -3 -34 37 c-37 40 -70
120 -54 129 5 4 9 13 9 21 0 9 14 50 31 92 17 43 32 82 33 87 1 6 17 42 35 80
19 39 61 126 93 195 57 118 80 169 82 180 1 3 9 16 17 30 9 14 41 72 72 130
65 122 102 162 183 195 64 27 107 31 151 14z m2862 -135 c32 -19 37 -26 257
-415 91 -162 188 -332 215 -379 61 -107 64 -147 16 -195 -44 -44 -100 -54
-159 -27 -23 11 -42 23 -40 26 1 4 -14 37 -34 74 -143 260 -241 433 -264 467
-58 86 -172 297 -177 329 -7 42 18 96 55 118 34 22 96 23 131 2z m-939 -279
c3 -1 23 -8 45 -15 150 -48 233 -209 176 -342 -23 -54 -62 -93 -126 -127 l-50
-26 -386 -3 -387 -3 -3 28 c-2 15 -3 135 -1 266 l4 238 361 -7 c199 -3 364 -7
367 -9z m-1814 -200 c29 -19 63 -87 64 -127 0 -41 -27 -101 -56 -122 -33 -24
-93 -31 -137 -17 -50 17 -90 78 -91 140 -1 61 15 91 67 125 34 22 50 27 84 23
24 -2 54 -12 69 -22z m2397 -320 c41 -20 46 -28 158 -226 164 -290 161 -282
135 -343 -23 -54 -53 -76 -107 -76 -39 0 -52 5 -79 33 -17 17 -48 61 -67 97
-20 36 -55 97 -79 135 -81 133 -134 244 -134 281 0 86 92 138 173 99z m-2467
-358 c68 -62 53 -170 -33 -234 -21 -15 -43 -33 -50 -39 -7 -6 -32 -24 -57 -40
-25 -16 -45 -31 -43 -34 87 -172 133 -261 172 -325 71 -120 71 -191 0 -235
-85 -53 -134 -15 -235 182 -40 79 -94 181 -121 228 -26 47 -55 111 -64 143
-25 88 -15 107 128 238 146 134 169 149 225 149 34 0 49 -6 78 -33z m3187
-141 c46 -19 83 -66 134 -171 129 -267 87 -515 -134 -790 -99 -124 -465 -500
-683 -702 -240 -223 -370 -302 -575 -349 -142 -33 -1194 -45 -1241 -15 -28 18
-74 89 -74 114 0 36 31 85 65 101 29 14 103 16 587 16 511 0 559 2 633 19 152
37 233 83 387 224 187 169 428 409 421 420 -3 5 -2 8 3 4 11 -6 268 250 338
336 25 32 44 62 41 68 -4 5 -3 9 2 9 11 0 49 85 64 143 16 67 7 201 -18 258
-17 38 -28 48 -67 63 -31 12 -51 27 -61 46 -34 67 -2 166 65 201 41 23 69 24
113 5z m-1230 -400 c16 -3 50 -16 75 -27 26 -12 50 -21 54 -21 5 1 7 -1 5 -6
-1 -4 9 -19 22 -32 46 -48 66 -108 65 -195 0 -98 -25 -157 -91 -214 -83 -74
-89 -75 -535 -79 l-398 -3 0 293 0 293 387 -2 c214 -1 401 -4 416 -7z m-2533
-52 c17 -20 46 -66 63 -103 45 -92 203 -395 242 -461 17 -30 34 -63 38 -73 9
-25 82 -130 101 -146 8 -7 46 -17 83 -21 60 -8 71 -13 96 -42 25 -29 28 -39
24 -86 -5 -65 -29 -100 -82 -119 -70 -25 -162 -3 -247 60 -46 34 -111 125
-188 262 -96 170 -307 592 -316 630 -4 17 -11 35 -16 42 -12 15 4 45 38 72 19
15 41 21 79 21 48 0 56 -3 85 -36z m3225 -150 c70 -33 105 -110 85 -186 -27
-101 -140 -147 -227 -92 -53 34 -80 143 -49 202 41 78 120 110 191 76z m-573
-669 c53 -39 62 -118 20 -175 -36 -48 -49 -50 -341 -50 l-273 0 -39 39 c-34
33 -39 45 -39 83 0 52 27 93 72 112 20 9 109 12 301 12 256 -1 274 -2 299 -21z"/>
    </g>
</svg>
