<svg height="897"
     version="1.2"
     viewBox="0 0 1568 897"
     width="1568"
     xmlns="http://www.w3.org/2000/svg">
  <title>_f8b796bf-5b5b-4b45-a4b8-92560f404796_pixian-svg</title>
  <defs>
    <clipPath clipPathUnits="userSpaceOnUse"
              id="cp1">
      <path d="m272-160h1024v1024h-1024z"/>
    </clipPath>
  </defs>
  <style>
    tspan {
      white-space: pre
    }

    .s0 {
      fill: none;
      stroke: #010f26;
      stroke-width: 2
    }

    .s1 {
      fill: none;
      stroke: #3c7d97;
      stroke-width: 2
    }

    .s2 {
      fill: none;
      stroke: #61869e;
      stroke-width: 2
    }

    .s3 {
      fill: none;
      stroke: #3dc6d5;
      stroke-width: 2
    }

    .s4 {
      fill: none;
      stroke: #9ce6ec;
      stroke-width: 2
    }

    .s5 {
      fill: none;
      stroke: #026686;
      stroke-width: 2
    }

    .s6 {
      fill: none;
      stroke: #808ea4;
      stroke-width: 2
    }

    .s7 {
      fill: none;
      stroke: #81d7e2;
      stroke-width: 2
    }

    .s8 {
      fill: none;
      stroke: #62cfdc;
      stroke-width: 2
    }

    .s9 {
      fill: none;
      stroke: #e0f7f9;
      stroke-width: 2
    }

    .s10 {
      fill: none;
      stroke: #0181a0;
      stroke-width: 2
    }

    .s11 {
      fill: none;
      stroke: #02cade;
      stroke-width: 2
    }

    .s12 {
      fill: none;
      stroke: #808081;
      stroke-width: 2
    }

    .s13 {
      fill: none;
      stroke: #bbeef2;
      stroke-width: 2
    }

    .s14 {
      fill: #011d48
    }

    .s15 {
      opacity: 1;
      fill: #010103
    }

    .s16 {
      fill: #c1eff3
    }

    .s17 {
      fill: #77dde5
    }

    .s18 {
      fill: #03aec4
    }

    .s19 {
      fill: #feffff
    }

    .s20 {
      fill: #01e5f7
    }

    .t21 {
      font-size: 150px;
      fill: #000000;
      font-weight: 400;
      font-family: "Caprasimo-Regular", "Caprasimo"
    }
  </style>
  <g clip-path="url(#cp1)"
     id="Clip-Path">
    <g id="Layer">
      <path class="s0"
            d="m651 5.3q1.9 7.4-1.1 13.9-0.2 0.5-0.6 0.8-12.3 7.2-24.1 19.2c-31.2 31.9-52.5 72.4-56.9 116.8q-0.9 8.4-0.1 14.8"
            fill-rule="evenodd"
            id="Layer"/>
      <path class="s0"
            d="m568.2 181.3q-1.4 11.1 1.1 20.4c0.6 2.4 0.8 4.9 1.7 6.8 4.5 10.3 3.9 19.2-9.8 19q-2.4 0-4.4-1.4-2.2-1.6-4.1-3.5"
            fill-rule="evenodd"
            id="Layer"/>
      <path class="s0"
            d="m548 144.5l0.6-0.3q0.4-0.2 0.5-0.7 3.1-20.7 11-40c6.7-16.4 14-31.6 23.9-46.3q0.3-0.4 0.3-0.9l-0.1-1.3"
            fill-rule="evenodd"
            id="Layer"/>
      <path class="s0"
            d="m806.5 3q-7.6 0.3-15 1.7c-1.2 0.3-4-1-4.4 0q-0.1 0.5-0.6 0.6-11.4 1.5-22.8 3.6-2.6 0.5-5.7 2.1c-2.3 1.2-4.8 0.4-7 1q-5.9 1.5-11.5 3.8c-8.4 3.4-16.3 5.8-24.1 9.7q-0.5 0.3-0.9 0l-1-0.5"
            fill-rule="evenodd"
            id="Layer"/>
      <path class="s0"
            d="m840.1 5.2q19.3 5 38.7 9.8 10.3 2.5 9.9 12.5c-0.1 5.6-4.6 9.4-10.2 9.7q-4.7 0.4-9.5-1"
            fill-rule="evenodd"
            id="Layer"/>
      <path class="s0"
            d="m795.5 25.9q-5.2-1.2-10.4-0.2-5.7 1-5.8 1-9.2 1.3-21.1 4.7c-39.8 11.5-77.8 34.6-102.2 67.8-8.1 11-15.7 22.2-20.1 35.2-2 6.1-7 8.9-13.2 9.2"
            fill-rule="evenodd"
            id="Layer"/>
      <path class="s0"
            d="m940.6 68.4q7.4 2 12.5-2.5c4.2-3.7 4.2-11.3 0.3-15.3-4.6-4.7-9.9-8.2-15-12.3-5.1-4.1-10.9-7.1-16.3-10.8q-3.8-2.5-5.9-3.1c-6.9-1.9-12.6 3.2-12.9 10.4q-0.1 1.1 0.6 2.2 0.3 0.4 0.3 0.9c0 4.4 18.3 15.1 24.1 18.8q4.8 3 6.5 6.2"
            fill-rule="evenodd"
            id="Layer"/>
      <path class="s0"
            d="m825.5 52.5q0.9 0.3 1.1 1.2 0.1 0.5 0.7 0.5c13.2 0.8 25.4 4.7 38.1 8.3q8.2 2.3 14.7 5.3c10.9 5.1 22.1 10.7 31.7 18.1 4.6 3.6 9 6.4 13.7 10.5q2.2 1.8 5.6 4.3c4.8 3.5 10 10 15.1 15.4 8.3 8.9 16.5 19.1 22.4 29.6 12.2 21.9 20.3 45 23.8 70.3q0.7 4.7 1.5 7 0.2 0.5 0.1 1c-1.6 9.8 4.5 35.6-10.2 36.8q-1.9 0.2-3.8 0.8"
            fill-rule="evenodd"
            id="Layer"/>
      <path class="s0"
            d="m896.3 101c0.5-1.7-6.5-5.4-7.9-6.2q-25-13.6-53.1-18.6-1.4-0.2-4 0.3"
            fill-rule="evenodd"
            id="Layer"/>
      <path class="s0"
            d="m789.5 76q-3-0.5-5.5 0.1c-31.2 6.5-58.8 21.9-80.9 44.6-26.8 27.7-44.8 68.5-38.9 107.8q0.1 0.4 0.3 0.5 0.2 0.1 0.2 0.4c0.4 10.7 4.3 22.3 9.1 32 2.6 5.3 6.9 11 10.4 16.4q0.5 0.7 1.3 0.2"
            fill-rule="evenodd"
            id="Layer"/>
      <path class="s1"
            d="m794.2 206.5q-1.2-3.6 0.8-7"
            fill-rule="evenodd"
            id="Layer"/>
      <path class="s2"
            d="m795 199.5l12.5 2"
            fill-rule="evenodd"
            id="Layer"/>
      <path class="s0"
            d="m822.8 209.3q1.6 3.2 4.5 5.4c8.8 6.8 16.6 20.6 18.9 31.3q1.2 5.2 2.9 10.3"
            fill-rule="evenodd"
            id="Layer"/>
      <path class="s0"
            d="m849.2 263q-1 2.6-3.3 11.4-1.5 6-7.3 18.3c-8.3 17.7-28.1 30.9-45.6 38q-4.8 2-17 4.7c-1.7 0.4-4.1 0.1-6.1 1.2q-0.4 0.2-0.9 0.2l-19.8 0.5"
            fill-rule="evenodd"
            id="Layer"/>
      <path class="s0"
            d="m735.6 334.7q-22.7-6.9-42.7-19.6c-0.8-0.5-1.2-0.4-2.2-0.3"
            fill-rule="evenodd"
            id="Layer"/>
      <path class="s0"
            d="m643.3 194.8q3.2-11.4 5.9-22.9c0.6-2.5 2-7 2.5-10.7"
            fill-rule="evenodd"
            id="Layer"/>
      <path class="s3"
            d="m794.3 206.8q0 2.3 1.2 3.9c0.4 0.5 5.2 4.6 4.3 6.3"
            fill-rule="evenodd"
            id="Layer"/>
      <path class="s4"
            d="m798.8 217.2q0-0.7-0.5-0.6-10.8 1.9-9.4 13.2c0.9 7.4-10.4 5.6-13.9 3-2-1.5-3.6-4.4-6.2-6.3"
            fill-rule="evenodd"
            id="Layer"/>
      <path class="s3"
            d="m767 220l0.7-2"
            fill-rule="evenodd"
            id="Layer"/>
      <path class="s4"
            d="m809.5 185q-2.5 3.6-1.2 7.9 0.2 0.5 0.6 0.7l1.9 1.3q0.5 0.3 0.2 0.8l-2.2 3.8"
            fill-rule="evenodd"
            id="Layer"/>
      <path class="s4"
            d="m795 199.5q-5.2-0.7-10.5-0.1c-0.7 0.1-1.2-0.2-1.3-0.9"
            fill-rule="evenodd"
            id="Layer"/>
      <path class="s0"
            d="m828.7 165.3q7.7 5 16 8.7 3.9 1.8 12.3 8.9c1 0.8 1.5 2.1 2.6 2.8 2.4 1.5 5 3.6 6.4 5.3 12.8 15.8 19.5 32.1 23.9 52.1q0.2 0.8 1.3 0.9"
            fill-rule="evenodd"
            id="Layer"/>
      <path class="s0"
            d="m892.8 260c-0.4 2.4-0.9 4.6-0.8 7 0.3 15.3-3.6 30.6-8.6 43.2-14.7 37.3-51.1 64-89.3 74-3 0.8-6.7 1.2-10.1 3"
            fill-rule="evenodd"
            id="Layer"/>
      <path class="s0"
            d="m720 384.7c0-1.2-5.3-2.9-6.7-3.3-21.2-6.5-40.7-16.7-58.3-30.2q-0.5-0.4-1.8-0.2"
            fill-rule="evenodd"
            id="Layer"/>
      <path class="s0"
            d="m790 362.2q0.8 1 1.9 0.7 9.4-2.6 18.2-6.6"
            fill-rule="evenodd"
            id="Layer"/>
      <path class="s1"
            d="m816.1 352.8q8.6-4.1 15.6-10.5"
            fill-rule="evenodd"
            id="Layer"/>
      <path class="s2"
            d="m831.8 342.3c18.5-14.7 34.7-36.5 37.2-60.8"
            fill-rule="evenodd"
            id="Layer"/>
      <path class="s1"
            d="m869 281.5q2-8.6 1.7-16.5c-1.5-34.3-14.2-67.3-49.7-78.5q-4.7-1.5-11.5-1.5"
            fill-rule="evenodd"
            id="Layer"/>
      <path class="s2"
            d="m809.5 185q-15.3-0.4-28.1 8.2-1.1 0.7-1.1 1.8"
            fill-rule="evenodd"
            id="Layer"/>
      <path class="s5"
            d="m767.2 215.8q-2 1.9-0.2 4.2"
            fill-rule="evenodd"
            id="Layer"/>
      <path class="s1"
            d="m767 220q-0.1 3.6 1.8 6.5"
            fill-rule="evenodd"
            id="Layer"/>
      <path class="s2"
            d="m768.8 226.5q4.6 10.5 15.5 10.1c8.1-0.3 4.2-10.2 6.8-14.3q2.6-4.1 7.7-5.1"
            fill-rule="evenodd"
            id="Layer"/>
      <path class="s1"
            d="m798.8 217.2l1-0.2"
            fill-rule="evenodd"
            id="Layer"/>
      <path class="s5"
            d="m799.8 217l0.7-0.3"
            fill-rule="evenodd"
            id="Layer"/>
      <path class="s0"
            d="m805.6 219.4c7.4 11.5 5.1 26.4-6.3 34.4q-16.8 11.9-34.3 1-0.6-0.4-1.3 0.2"
            fill-rule="evenodd"
            id="Layer"/>
      <path class="s0"
            d="m760.8 253q0.3-0.7-0.2-1.1-5.2-4.7-10.2-9.8"
            fill-rule="evenodd"
            id="Layer"/>
      <path class="s4"
            d="m869 281.5q-2 7.6-4.5 15.1c-6 17.2-18.6 32.4-32.6 43.7-0.7 0.6-1.1 1.4-0.1 2"
            fill-rule="evenodd"
            id="Layer"/>
      <path class="s0"
            d="m995 84q-0.2-0.2-0.5-0.2-0.4-0.1-0.5-0.4c-4.5-12.7-22.8-11.5-23.7 3.1-0.8 14.8 20 14.6 23.8 1.1q0.2-0.4 0.5-0.7 0.2-0.2 0.4-0.4"
            fill-rule="evenodd"
            id="Layer"/>
      <path class="s0"
            d="m908 161.3q9.2 16.7 12.2 23 13.6 28.1 15.8 59.3 0.1 1.3 0.7 3.6c0.5 2.3-0.2 4.9 0.8 6.8"
            fill-rule="evenodd"
            id="Layer"/>
      <path class="s0"
            d="m937.5 255.3q-1.5 15.7-1.7 31.5c0 4.9-1.6 9-6.1 10.6q-8.1 2.8-12.2-5.2-1-1.8-2.3-2.5"
            fill-rule="evenodd"
            id="Layer"/>
      <path class="s0"
            d="m796.5 129c-2-1.6-10.8 0.2-12.9 0.9q-3.9 1.2-7.8 2.3c-34.5 9.6-58.8 39.9-60.9 75.3-1 16.8 3.4 30.6 14 43.4q1.1 1.3 2.6 1.6"
            fill-rule="evenodd"
            id="Layer"/>
      <path class="s0"
            d="m733.9 254.9l-0.2 0.5q-0.2 0.4 0.2 0.8 8.4 8.2 21 13.4 5.4 2.2 8.1 8.4"
            fill-rule="evenodd"
            id="Layer"/>
      <path class="s0"
            d="m763 281q-1.9 2.6-4.4 4.4c-8.6 6.1-21.8-1.4-29.3-6.3q-0.7-0.5-2 0.2"
            fill-rule="evenodd"
            id="Layer"/>
      <path class="s0"
            d="m693.4 203.4q2.4-9.9 4.8-19.8 1.2-5 3.5-10.9 2.2-5.4 4-10.9"
            fill-rule="evenodd"
            id="Layer"/>
      <path class="s0"
            d="m599.3 186.1q6 3.9 11.7 2.1c6.7-2 10.1-8.9 7.3-15.5q-3.7-8.6-15.1-7.1c-3.6 0.5-6.2 4.9-8.4 7.4"
            fill-rule="evenodd"
            id="Layer"/>
      <path class="s0"
            d="m540 295.8q0.4 2.2 2.5 3.3 0.3 0.2 0.3 0.4c0 0.5-0.1 0.6 0.1 1 9.8 18.9 17.1 32 13.9 52.5"
            fill-rule="evenodd"
            id="Layer"/>
      <path class="s0"
            d="m726.5 478.3q8.6 21.3 12.7 34.4 4.7 14.7 8.7 34.8c0.4 2.1 2 17.4 2.6 17.9q0.3 0.2 0.3 0.7l0.3 22q0 0.5 0.3 0.8c1.1 1.1 0.4 4.2 0.8 6.1"
            fill-rule="evenodd"
            id="Layer"/>
      <path class="s0"
            d="m752 678.5q-1.6 4.1-2.2 5.3-4.7 9.4-15.6 9.3-32.3-0.3-64.7 0.1-0.9 0-2.5 1"
            fill-rule="evenodd"
            id="Layer"/>
      <path class="s0"
            d="m662.4 693.4q-5 0.9-9.9 2.2-4.5 1.3-7.7 1.2c-11.2-0.1-18.9-3.8-29-7.5"
            fill-rule="evenodd"
            id="Layer"/>
      <path class="s0"
            d="m583.6 617.4q-6.5-6.8-14.9-11.1c-3.9-1.9-7.8-4.4-11.4-6.2-25.8-12.9-52.2-25.8-75.8-41.8q-8.7-6-18.2-16.3-1.5-1.7-2.3-3c-3-5.2-6.8-11.5-8.1-17.2q-0.8-3.3-1.6-5.2c-2.8-5.9-4.8-12.6-7.6-17.8q-3.4-6.5-7.5-12.5c-0.7-1-0.8-2.2-2.1-3.1q-0.3-0.2-0.6-0.7c-4.3-8.3-10.3-15.9-15.5-23.8-3.1-4.8-7.2-8.5-10.9-12.8q-1.5-1.8-3.6-2.7"
            fill-rule="evenodd"
            id="Layer"/>
      <path class="s0"
            d="m395 420q0.4-0.7 1-1.2 0.4-0.3 0.4-0.8l-0.2-70.3q0-0.4-0.3-0.6-0.7-0.6-0.9-1.6"
            fill-rule="evenodd"
            id="Layer"/>
      <path class="s0"
            d="m1153 289q-1.3-4.9-1.6-9.9-0.2-3.6-1.1-6.1-6.9-19.1-20.1-34.7c-5.7-6.8-13.5-13.6-22.4-15.4-3.2-0.6-6.2 0.6-9.8-0.4"
            fill-rule="evenodd"
            id="Layer"/>
      <path class="s0"
            d="m1153.2 393l-0.6 1.7q-0.1 0.5 0 1c4.2 13.6 3.1 27-3.5 39.5-6.1 11.6-15.6 20-22.9 30.6q-9.2 13.5-14.7 22.7-6.8 11.6-8.7 17.8-6 18.5-8.3 24.5c-4.8 12.6-16.6 22.4-27.8 29.5-17.5 11.1-37.1 21.8-56.4 31.9q-14.1 7.4-27.7 15.5c-2.5 1.5-17.9 11.6-18.6 13.8"
            fill-rule="evenodd"
            id="Layer"/>
      <path class="s0"
            d="m964 621.8c-1.8 3.8 0.5 11.7 0.6 15.9 0.1 29.3-18.4 54-47.5 59.4q-6.9 1.3-14.8 0.2-9.3-1.3-18.2-4.3"
            fill-rule="evenodd"
            id="Layer"/>
      <path class="s0"
            d="m881.3 692.1q-1.9-0.6-3.6 0.6-0.4 0.3-0.9 0.3-33.5 0-67-0.2c-5.8 0-10.6-6.1-12.6-10.8q-1.3-3.1-1.4-8.3-0.5-62.9-0.3-90.9 0.1-7.8 1.8-20.2c0.3-2 0.1-4.2 0.4-6.4 3-26.2 10.2-54.7 22.8-77.7q0.2-0.4 0.1-0.9l-0.4-1.1"
            fill-rule="evenodd"
            id="Layer"/>
      <path class="s0"
            d="m840.3 453.5q0.6-0.1 1.2 0.3 0.4 0.2 0.8 0 11.4-7.1 15.4-8.4 11.5-3.9 22.1-10"
            fill-rule="evenodd"
            id="Layer"/>
      <path class="s0"
            d="m890.3 385.3l-0.5 0.6q-0.4 0.4-0.1 0.9c3.7 7.3-0.1 13.2-6.4 17-22.3 13.3-45 24.6-69.5 30.9q-18.3 4.7-37 6.7c-6 0.6-16.8 2.1-25.3 2.3"
            fill-rule="evenodd"
            id="Layer"/>
      <path class="s0"
            d="m1019.3 124.4c0-1.5-0.3-2.9-0.9-4.3-0.5-1.3-1.4-2.6-2.4-3.6-1-1.1-2.3-1.9-3.6-2.5-1.4-0.5-2.9-0.8-4.3-0.8-1.5 0-3 0.3-4.3 0.8-1.4 0.6-2.6 1.4-3.7 2.5-1 1-1.8 2.3-2.4 3.6-0.6 1.4-0.9 2.8-0.9 4.3 0 1.5 0.3 2.9 0.9 4.3 0.6 1.4 1.4 2.6 2.4 3.6 1.1 1.1 2.3 1.9 3.7 2.5 1.3 0.5 2.8 0.8 4.3 0.8 1.4 0 2.9-0.3 4.3-0.8 1.3-0.6 2.6-1.4 3.6-2.5 1-1 1.9-2.2 2.4-3.6 0.6-1.4 0.9-2.8 0.9-4.3z"
            fill-rule="evenodd"
            id="Layer"/>
      <path class="s2"
            d="m422.9 269.3q-5.9 10.1-6.2 19.2-0.5 23.9 0.2 86.5 0 0.5 0.5 0.5l4.1-0.3"
            fill-rule="evenodd"
            id="Layer"/>
      <path class="s5"
            d="m421.5 375.2l0.3-0.4"
            fill-rule="evenodd"
            id="Layer"/>
      <path class="s6"
            d="m438.7 351.7q0.1-18.6 0.2-37.3c0.2-20.7 5.5-36.2 13.2-56.2 0.2-0.5 0.1-1.4 0.1-1.9"
            fill-rule="evenodd"
            id="Layer"/>
      <path class="s5"
            d="m452.2 256.3l0.3-0.4q0.2-0.3 0.2-0.7 0-5.9-1.9-10c-3.5-7.3-13.3-0.8-16.6 3.5q-7 9.5-11.3 20.6"
            fill-rule="evenodd"
            id="Layer"/>
      <path class="s7"
            d="m452.2 256.3c-2.9-1.2-5.3-4.4-8.3-6-8-4.3-19.8 30.4-21.3 34.7q-1.1 3.6-1.2 7.6-0.4 16.5 0.1 32.9"
            fill-rule="evenodd"
            id="Layer"/>
      <path class="s8"
            d="m421.5 325.5q-0.6 14.6 0.4 29.3"
            fill-rule="evenodd"
            id="Layer"/>
      <path class="s7"
            d="m421.9 354.8q-0.5 3.1 1 4.1"
            fill-rule="evenodd"
            id="Layer"/>
      <path class="s8"
            d="m421.5 375.2q0-1.8-2-1.4-0.2 0.1-0.4 0-0.3 0-0.4-0.2-0.2-0.1-0.3-0.3-0.1-0.2-0.1-0.4c0-17.4-1.2-36.8-0.2-55 0.7-11-0.3-22 0.5-33.1q0.5-6.5 2.9-10.3 1.8-2.8 1.4-5.2"
            fill-rule="evenodd"
            id="Layer"/>
      <path class="s9"
            d="m421.9 354.8q0.8-14.7-0.4-29.3"
            fill-rule="evenodd"
            id="Layer"/>
      <path class="s2"
            d="m460 312.5l0.5 15.4"
            fill-rule="evenodd"
            id="Layer"/>
      <path class="s1"
            d="m460.5 327.9q-0.6 29.9 0.7 59.4 0.1 3.4 0.7 4.3 12.5 22.6 27.7 43.4c0.5 0.7 1.4 1 2.2 1.5"
            fill-rule="evenodd"
            id="Layer"/>
      <path class="s0"
            d="m495.5 443.5v2.5q0 0.6 0.4 0.9 3.4 3.5 5.7 7.9 0.2 0.4 0.6 0.7 0.6 0.5 1.6 1.7 4.1 5.6 7.9 11.4c0.8 1.2 2 1.8 2.9 3.1 9.5 13.8 18.4 27.1 32.6 36.5 4.3 2.8 9.8 5.5 14.7 8.1 5.7 3 13 5.8 18.7 9.1q2.3 1.4 4.4 2.1c12.9 5 25.1 11.3 38.1 16.7 8.9 3.6 18.6 10.4 23.7 19.1q3 5.1 6.1 10.2"
            fill-rule="evenodd"
            id="Layer"/>
      <path class="s0"
            d="m664.5 579.1q8.3 4.6 16.8 9.1c4.9 2.5 10.6 8.1 14.1 13.5 6 9.2 9.9 16.5 11.9 27.2 0.2 0.6 0.6 1 1.2 0.6"
            fill-rule="evenodd"
            id="Layer"/>
      <path class="s5"
            d="m709.3 632.3q-0.8 3.3-0.3 6.7"
            fill-rule="evenodd"
            id="Layer"/>
      <path class="s5"
            d="m709 639c-1.8 9.6-6.7 27-14.3 33.5q-0.1 0.1-0.1 0.3-0.1 0.1 0 0.3 0 0.2 0.2 0.3 0.1 0.1 0.3 0.1l18.7-0.2"
            fill-rule="evenodd"
            id="Layer"/>
      <path class="s10"
            d="m713.8 673.3l16.1-0.4q0.3 0 0.6-0.2 0.3-0.1 0.6-0.3 0.2-0.3 0.3-0.6 0.2-0.3 0.1-0.7l-0.3-33.6"
            fill-rule="evenodd"
            id="Layer"/>
      <path class="s5"
            d="m731.2 637.5q0.4-3-0.4-5.5"
            fill-rule="evenodd"
            id="Layer"/>
      <path class="s0"
            d="m689.6 469.6q-5.3-4.5-10.6-6.9-16.4-7.3-41.7-17.5c-9.9-4-22.3-11.7-31.7-20-0.7-0.6-1.4-0.7-1.9 0"
            fill-rule="evenodd"
            id="Layer"/>
      <path class="s0"
            d="m569.1 383.6q-4.3-6.4-11.8-7.6c-2.6-0.4-6.9 0-9.1 1q-13.7 6.2-7.1 20.3"
            fill-rule="evenodd"
            id="Layer"/>
      <path class="s1"
            d="m572.5 462.7q-0.2-0.9-1-1c-5.3-1.1-7.8-2.7-11.5-7q-8.7-10.4-11.6-12.8c-36.6-29.3-70.6-54.3-70.2-107.9"
            fill-rule="evenodd"
            id="Layer"/>
      <path class="s2"
            d="m478.2 334q0.7-10.9 2.9-21.6c1.9-8.9 7.9-21.1 7.7-29.1q-0.3-9.7-8.9-13.2"
            fill-rule="evenodd"
            id="Layer"/>
      <path class="s1"
            d="m479.9 270.1q-10.3-0.1-13.7 8.6-6.7 16.8-6.2 33.8"
            fill-rule="evenodd"
            id="Layer"/>
      <path class="s4"
            d="m479.9 270.1q1.2 4.6-0.4 8.6-0.9 2.4-5 6.4c-8.3 8.3-11.9 12.7-11.7 25.2q0 0.5-0.3 0.9-0.9 1.2-2.5 1.3"
            fill-rule="evenodd"
            id="Layer"/>
      <path class="s4"
            d="m478.2 334l-0.3 0.3q-0.3 0.2-0.6 0l-16.8-6.4"
            fill-rule="evenodd"
            id="Layer"/>
      <path class="s11"
            d="m731.2 637.5q-10.6 0.9-21.2 0.4-0.5-0.1-0.7 0.4l-0.3 0.7"
            fill-rule="evenodd"
            id="Layer"/>
      <path class="s11"
            d="m713.8 673.3l-4.4-0.1q-0.5 0-0.5-0.5 0.5-14 0.6-27.9c0-1.8-0.8-3.7-0.5-5.8"
            fill-rule="evenodd"
            id="Layer"/>
      <path class="s2"
            d="m526.8 367.9q2.7-3.7 7.4-5.4c2.5-0.9 1.9-4.8 2.3-6.7"
            fill-rule="evenodd"
            id="Layer"/>
      <path class="s1"
            d="m536.5 355.8v-14.1"
            fill-rule="evenodd"
            id="Layer"/>
      <path class="s2"
            d="m536.5 341.8q-0.2-14.1-6.1-26.8"
            fill-rule="evenodd"
            id="Layer"/>
      <path class="s5"
            d="m530.4 315q-6.1-4.8-12.9-1.5c-10.3 5-15.6 19.7-15.8 30-0.3 19.4 9.4 31.5 19.2 47.5q0.1 0.3 0.1 0 0.5-12.2 5.8-23.1"
            fill-rule="evenodd"
            id="Layer"/>
      <path class="s8"
            d="m530.4 315q-9 9.8-12.8 15.1c-7.3 10.1-12.6 28.1 0.3 36.8 2.5 1.7 5.9 1.1 8.9 1"
            fill-rule="evenodd"
            id="Layer"/>
      <path class="s4"
            d="m536.5 341.8c-2.6 6.8-2.6 14-6.4 20.3q0 0.1 0 0.3 0 0.1 0.1 0.3 0.1 0.1 0.3 0.1 0.2 0 0.3-0.1c4.4-2.5 3.6-4.7 4.2-9q0-0.2 0.2-0.2 0.2 0 0.3 0 0.6 0 0.7 0.5l0.3 1.7"
            fill-rule="evenodd"
            id="Layer"/>
      <path class="s6"
            d="m424.9 431.6c11.8 8.1 21.8 2.7 26.3-9.8q0.2-0.4 0-0.9c-3.1-8.1-7.9-19.4-14.9-24.2-11.4-8-31.4 0.1-23.8 16.6 2.7 6 7.2 14.6 12.4 18.3z"
            fill-rule="evenodd"
            id="Layer"/>
      <path class="s1"
            d="m482.5 477q3.4-0.3 5.6-3.1 0.4-0.5 0-0.9c-8.8-10.9-15.4-22.9-22.9-35.1q-0.1-0.1-0.2-0.2-0.1 0-0.2 0-0.2 0.1-0.2 0.2-0.1 0-0.1 0.2c-0.2 2.8-1.7 4.8-3.6 7.4q-7.2 9.6-19.3 10-0.4 0-0.1 0.4l5.9 9"
            fill-rule="evenodd"
            id="Layer"/>
      <path class="s5"
            d="m488 501.5l-15.4 11q-0.4 0.3-0.2 0.8 1.6 6.8 5 13 1.3 2.5 3.8 2.8"
            fill-rule="evenodd"
            id="Layer"/>
      <path class="s1"
            d="m587 552q0.1-0.6-0.4-0.8-19-8.5-40.6-20.5c-19.4-10.7-31.9-24.4-45.8-41.2q-0.7-0.9-1.4 0.1-4.3 6.5-10.8 11.9"
            fill-rule="evenodd"
            id="Layer"/>
      <path class="s3"
            d="m489.5 504.3q-1.8-0.8-1.5-2.8"
            fill-rule="evenodd"
            id="Layer"/>
      <path class="s5"
            d="m611 643.3q3 18.3 19 27.5"
            fill-rule="evenodd"
            id="Layer"/>
      <path class="s10"
            d="m630 670.8c10.4 6.2 21.7 6.1 32.6 1.8 14.6-5.7 23.6-17.3 24-33.2 0.2-12.7-2.7-21.6-11.5-30.8q-9.9-10.5-24.3-10.9c-24.5-0.8-44.4 20.6-39.8 45.6"
            fill-rule="evenodd"
            id="Layer"/>
      <path class="s11"
            d="m630 670.8q0.5-0.6 0.6-1.1 0.2-0.6-0.3-0.9c-9.9-6-13.6-12.4-16.9-23.5q-0.4-1.5-2.4-2"
            fill-rule="evenodd"
            id="Layer"/>
      <path class="s2"
            d="m1095.3 256c-1.7 3.8 1.8 8.2 2.9 11.7 3.7 11.9 7.8 22.9 9.2 36.2q0.7 6.6 0.6 16.3-0.4 27.8-0.4 55.5 0 0.6 0.5 0.5l2.9-0.4"
            fill-rule="evenodd"
            id="Layer"/>
      <path class="s6"
            d="m1111 375.8q8.4-0.9 17.1-0.6"
            fill-rule="evenodd"
            id="Layer"/>
      <path class="s5"
            d="m1128.1 375.2l3.2 0.8q0.1 0 0.2 0 0.2-0.1 0.3-0.2 0.1 0 0.2-0.2 0-0.1 0-0.2-0.5-33.7-0.7-66.6 0-13.7-1-20c-2.2-14.2-8.9-36.6-22.3-45-4.6-2.8-8.8-2.2-11.1 2.9q-2.1 4.7-1.6 9.3"
            fill-rule="evenodd"
            id="Layer"/>
      <path class="s7"
            d="m1128.1 375.2c-0.2-8-0.8-16.2-0.8-23.9q0.1-25.2-0.3-50.3"
            fill-rule="evenodd"
            id="Layer"/>
      <path class="s8"
            d="m1127 301q-2.3-12.6-3.3-16.2-3.3-11.4-12.9-29.1c-4.4-8.2-10.7-5-15.5 0.3"
            fill-rule="evenodd"
            id="Layer"/>
      <path class="s9"
            d="m1127 301l-2 0.6q-0.5 0.1-0.8-0.3c-2.4-5.5-6.8-8.5-11.4-12.1q-0.1-0.1-0.3-0.1-0.2 0-0.4 0-0.2 0.1-0.3 0.2-0.1 0.2-0.2 0.4l-0.9 3.9q-0.1 0.5 0.1 1.1 4.1 8.6 4.4 17.1 1.1 25.5 0.3 58.4-0.1 1.9-0.3 3.1-0.1 0.5-0.6 0.6c-1.4 0.3-3.5-0.2-3.6 1.9"
            fill-rule="evenodd"
            id="Layer"/>
      <path class="s2"
            d="m1066.5 270.8c-16.4 2.5-7.1 26.8-4.3 36.4 2.6 9.4 3 18.7 3.3 28.3"
            fill-rule="evenodd"
            id="Layer"/>
      <path class="s1"
            d="m1065.5 335.5q0.3 44.9-29.3 75.8-3.9 4.2-14.8 13.4-17.1 14.6-33.6 29.8c-3.5 3.2-7.1 5.4-11.1 7.8"
            fill-rule="evenodd"
            id="Layer"/>
      <path class="s0"
            d="m987.5 377.2q-9.8 0.7-14.5 8.6-11.9 19.5-27 34.6c-25 24.9-57.5 32.6-90.5 48.9-9.2 4.5-14.6 12.4-18.7 21.5q-5.9 12.8-10.4 26.1c-4.3 12.9-6.9 26.3-9.4 40.3q-1.6 8.4-0.5 16.1"
            fill-rule="evenodd"
            id="Layer"/>
      <path class="s1"
            d="m816.5 658q-1 4.6 0 9.3"
            fill-rule="evenodd"
            id="Layer"/>
      <path class="s2"
            d="m816.5 667.3l0.2 4.3q0 0.4 0.4 0.4 17.4 0.8 34.9 0.5"
            fill-rule="evenodd"
            id="Layer"/>
      <path class="s1"
            d="m852 672.5h3.2q0.6 0 0.2-0.6-5.5-6.8-8.6-15.1-0.2-0.5-0.7-0.5l-2.1-0.1"
            fill-rule="evenodd"
            id="Layer"/>
      <path class="s1"
            d="m1060.5 434l0.8-0.5"
            fill-rule="evenodd"
            id="Layer"/>
      <path class="s2"
            d="m1061.3 433.5q1.3-1.4 3.7-5.5 5.3-9.1 10.4-18.3c5.6-9.9 8.7-15 9.2-24.8q0.9-14.7 0.9-25.1"
            fill-rule="evenodd"
            id="Layer"/>
      <path class="s1"
            d="m1085.5 359.8q0.3-12.8 0.4-25.6c0.2-9.2 2.4-18.3 2.1-27.2-0.4-9.5-3.3-17.9-6.4-26.3-2.4-6.5-7.6-12-15.1-10"
            fill-rule="evenodd"
            id="Layer"/>
      <path class="s4"
            d="m1085.5 359.8l-0.8 0.2q-0.4 0.1-0.4 0.6 0.2 13-0.8 25.9c-0.7 8.5-5.3 16.8-9.7 24-4.5 7.4-7.9 14.3-12.3 21.2q-0.3 0.4-0.3 0.9l0.1 0.9"
            fill-rule="evenodd"
            id="Layer"/>
      <path class="s4"
            d="m1065.5 335.5q7.4-2 14.3-5.3c5.5-2.6 3.3-6.7 4.3-11.3 1.7-8.2 2.4-15.4-2.2-22.8q-4.2-6.7-12.3-12.6c-4.6-3.3-6.3-7.6-3.1-12.8"
            fill-rule="evenodd"
            id="Layer"/>
      <path class="s4"
            d="m852 672.5c2-1.1-0.7-4-1.6-4.9q-0.4-0.4-0.9-0.3c-2.6 0-5.2-0.5-7.6-0.5q-12.7 0.1-25.4 0.5"
            fill-rule="evenodd"
            id="Layer"/>
      <path class="s2"
            d="m1016.5 312.9q-9.4 12.2-8.2 27.9"
            fill-rule="evenodd"
            id="Layer"/>
      <path class="s1"
            d="m1008.3 340.8l1.1 19.9q0 0.6 0.4 0.9 1.4 1.3 3.5 1.4"
            fill-rule="evenodd"
            id="Layer"/>
      <path class="s2"
            d="m1013.3 363q5.4 1.3 7.5 6.5"
            fill-rule="evenodd"
            id="Layer"/>
      <path class="s5"
            d="m1020.8 369.5c1.1 4.9 4.8 16.2 3.7 20.7q0 0.1 0 0.2 0.1 0.1 0.2 0.1 0.1 0.1 0.2 0.1 0.1 0 0.2-0.1c11.8-14.9 18.1-31.4 17.6-50.4q-0.5-14.5-12.2-24.1-6.2-4.9-14-3.1"
            fill-rule="evenodd"
            id="Layer"/>
      <path class="s8"
            d="m1020.8 369.5c25.4-6.4 8.7-37-2.2-47.1q-3.6-3.3-2.1-9.5"
            fill-rule="evenodd"
            id="Layer"/>
      <path class="s4"
            d="m1013.3 363q0.1-1 1.1-1.4 0.5-0.2 0.3-0.7-3.7-9.8-6-20.1 0-0.1-0.1-0.1-0.2 0.1-0.3 0.1"
            fill-rule="evenodd"
            id="Layer"/>
      <path class="s6"
            d="m1101 413.9q-0.6 2.7-1.3 5.3c-1.9 6.2 5.1 12.5 10.1 14.6 13.5 5.9 22.2-7.3 26-17.8 4.8-13-1-23.4-16.3-22.2"
            fill-rule="evenodd"
            id="Layer"/>
      <path class="s0"
            d="m1119.5 393.8c-2.2-1.3-7 2.3-8.3 3.6q-7.3 6.9-10.2 16.5"
            fill-rule="evenodd"
            id="Layer"/>
      <path class="s12"
            d="m1119.5 393.8q-7.1 3.3-11.3 9.2-1.5 2.2-7.2 10.9"
            fill-rule="evenodd"
            id="Layer"/>
      <path class="s6"
            d="m1081.2 445.2l-16.8 29.1q0 0.2-0.1 0.3 0 0.2 0 0.4 0.1 0.1 0.1 0.3 0.1 0.1 0.2 0.2l20.8 17.5q0.4 0.3 0.6-0.2 8.8-17.8 20-34.3"
            fill-rule="evenodd"
            id="Layer"/>
      <path class="s1"
            d="m1106 458.5l1.5-1.7q0.3-0.5-0.3-0.5c-10-1.6-17.5-9.9-22.4-18.2q-0.3-0.6-0.6 0l-3 7.1"
            fill-rule="evenodd"
            id="Layer"/>
      <path class="s13"
            d="m1106 458.5q-2.9 1.7-4.2 4.9-0.1 0.3-0.3 0.5-0.2 0.2-0.5 0.4-0.3 0.1-0.6 0.1-0.3 0-0.6-0.1-13.6-5.4-18.6-19.1"
            fill-rule="evenodd"
            id="Layer"/>
      <path class="s6"
            d="m966.8 550.7q-20.8 8.1-34.9 16-4.9 2.7-9.6 8.8"
            fill-rule="evenodd"
            id="Layer"/>
      <path class="s5"
            d="m920.3 578.3q-1.6 1.9 3.5 0.2"
            fill-rule="evenodd"
            id="Layer"/>
      <path class="s6"
            d="m923.8 578.5c10.1 4.3 25.4 14 30.8 24q0.3 0.4 0.6 0 8.6-10.4 21-16.9 18.7-9.8 33.1-16.7 8.4-4 16.2-9.2"
            fill-rule="evenodd"
            id="Layer"/>
      <path class="s2"
            d="m1025.5 559.8q3.6-1.5 7-3.5c3.3-2.1 7.4-3.7 10.7-6.3"
            fill-rule="evenodd"
            id="Layer"/>
      <path class="s5"
            d="m1069.5 530c5.8-2.7 7.6-12.3 8.1-17.7q0.1-0.5-0.3-0.8c-10-5.8-18-13.4-26.8-20.8"
            fill-rule="evenodd"
            id="Layer"/>
      <path class="s1"
            d="m1050.5 490.8l-0.8-0.7q-0.4-0.3-0.7 0.1c-12.8 15.2-24.8 28.5-41.6 39q-15.6 9.7-40.6 21.5"
            fill-rule="evenodd"
            id="Layer"/>
      <path class="s3"
            d="m1050.5 490.8c-0.4 0.9-0.4 1.8 0.2 2.7q3.8 5.4 6.7 11.1"
            fill-rule="evenodd"
            id="Layer"/>
      <path class="s13"
            d="m1020.5 536.3q-2.1-0.2-2.7 0.2c-13.1 7.5-22.6 12.3-36.3 16.7-5.2 1.6-13.1 4.2-14.8-2.5"
            fill-rule="evenodd"
            id="Layer"/>
      <path class="s9"
            d="m1026 558.7l-0.5 1"
            fill-rule="evenodd"
            id="Layer"/>
      <path class="s7"
            d="m923.8 578.5l-0.1-1"
            fill-rule="evenodd"
            id="Layer"/>
      <path class="s10"
            d="m870 621.5c-8.5 18.8 0.5 42.9 20.1 51 33.4 13.8 64.3-15.3 51-49.8-4.9-12.8-17.8-23.2-31.5-24.5-17.3-1.6-32.6 7.8-39.6 23.3z"
            fill-rule="evenodd"
            id="Layer"/>
      <path class="s9"
            d="m426.9 287.2c0.2 0.1 0.6 0 0.8-0.2q4.7-4.2 11.2-4.6 0.6-0.1 0.6 0.5c-0.1 2.3-1.5 4.6 0 6.7q0.1 0.1 0.2 0.2 0.2 0 0.3 0 0.2-0.1 0.3-0.2 0.2-0.1 0.2-0.3l1.2-6.6q0-0.5-0.3-0.8c-3.6-4-12.8 1.1-15.6 4q-0.1 0.1-0.1 0.2-0.1 0.1-0.1 0.2 0 0.1 0.1 0.2 0 0.1 0.1 0.1 0.3 0.3 0.6 0.4 0.1 0 0.5 0.2z"
            fill-rule="evenodd"
            id="Layer"/>
    </g>
  </g>
  <path class="s14"
        d="m651 5.3q1.9 7.4-1.1 13.9-0.2 0.5-0.6 0.8-12.3 7.2-24.1 19.2c-31.2 31.9-52.5 72.4-56.9 116.8q-0.9 8.4-0.1 14.8v10.5q-1.4 11.1 1.1 20.4c0.6 2.4 0.8 4.9 1.7 6.8 4.5 10.3 3.9 19.2-9.8 19q-2.4 0-4.4-1.4-2.2-1.6-4.1-3.5-1.6-2.1-2.2-4.8-7.9-36.4-2.5-73.3l0.6-0.3q0.4-0.2 0.5-0.7 3.2-20.7 11-40c6.7-16.4 14-31.6 23.9-46.3q0.3-0.4 0.3-0.9l-0.1-1.3c12.4-18.4 27.6-34 44.4-48.4 7.5-6.5 15.1-10.2 22.4-1.3z"
        id="Layer"/>
  <path class="s15"
        d="m806.5 3q-7.6 0.3-15 1.7c-1.2 0.3-4-1-4.4 0q-0.1 0.5-0.6 0.6-11.4 1.5-22.8 3.6-2.6 0.5-5.7 2.1c-2.3 1.2-4.8 0.4-7 1q-5.9 1.5-11.5 3.8c-8.4 3.4-16.3 5.8-24.1 9.7q-0.5 0.3-0.9 0l-1-0.5c28.1-14 61.3-22.8 93-22z"
        id="Layer"/>
  <path class="s14"
        d="m806.5 3q17-0.7 33.6 2.2 19.3 5 38.7 9.8 10.3 2.5 9.9 12.5c-0.1 5.6-4.6 9.4-10.2 9.7q-4.7 0.4-9.5-1c-23.9-9.2-48-11.2-73.5-10.3q-5.2-1.2-10.4-0.2-5.7 1-5.8 1-9.2 1.3-21.1 4.7c-39.8 11.5-77.8 34.6-102.2 67.8-8.1 11-15.7 22.2-20.1 35.2-2 6.1-7 8.9-13.2 9.2-15.2-7.3-6.4-21.7-0.7-31.4 10.6-18.3 22-35.6 37.7-49.7 16.9-15.1 33.3-27.1 53.8-37.5l1 0.5q0.4 0.3 0.9 0c7.8-3.9 15.7-6.3 24.1-9.7q5.6-2.3 11.5-3.8c2.2-0.6 4.7 0.2 7-1q3.1-1.6 5.7-2.1 11.4-2.1 22.8-3.6 0.5-0.1 0.6-0.6c0.4-1 3.2 0.3 4.4 0q7.4-1.4 15-1.7z"
        id="Layer"/>
  <path class="s15"
        d="m840.1 5.2q15.6 1.9 35.6 7.8c5.1 1.5 9 2.4 12 7 8.4 12.7-6.9 23.5-18.7 16.3q4.8 1.3 9.5 0.9c5.6-0.3 10.1-4.1 10.2-9.7q0.4-10-9.9-12.5-19.4-4.8-38.7-9.8z"
        id="Layer"/>
  <path class="s15"
        d="m651 5.3c4 7.6 2.2 13.8-4.6 18.2q-10.4 6.7-19.8 16.1c-35.3 35.1-56.6 81.7-58.4 131.2q-0.8-6.4 0.1-14.8c4.4-44.4 25.7-84.9 56.9-116.8q11.8-12 24.1-19.2 0.4-0.3 0.6-0.7 3-6.6 1.1-14z"
        id="Layer"/>
  <path class="s15"
        d="m940.6 68.4q7.4 2 12.5-2.5c4.2-3.7 4.2-11.3 0.3-15.3-4.6-4.7-9.9-8.2-15-12.3-5.1-4.1-10.9-7.1-16.3-10.8q-3.8-2.5-5.9-3.1c-6.9-1.9-12.6 3.2-12.9 10.4q-0.1 1.1 0.6 2.2 0.3 0.4 0.3 0.9c0 4.4 18.3 15.1 24.1 18.8q4.8 3 6.5 6.2-11.3-8.5-23.4-15.7c-2.4-1.5-6.1-4.7-7.4-7.2-4.8-8.8 1.8-19 11.8-17.1q3.4 0.7 9.5 4.7 12.9 8.7 25.4 17.9c6.2 4.4 8.6 11.6 5.4 18.6q-3.9 8.6-15.5 4.3z"
        id="Layer"/>
  <path class="s14"
        d="m940.6 68.4q-3.3-2.4-5.8-5.5-1.7-3.2-6.5-6.2c-5.8-3.7-24.1-14.4-24.1-18.8q0-0.5-0.3-0.9-0.7-1.1-0.6-2.2c0.3-7.2 6-12.3 12.9-10.4q2.1 0.6 5.9 3.1c5.4 3.7 11.2 6.7 16.3 10.8 5.1 4.1 10.4 7.6 15 12.3 3.9 4 3.9 11.6-0.3 15.3q-5.1 4.5-12.5 2.5z"
        id="Layer"/>
  <path class="s15"
        d="m795.5 25.9q-15.7 1.4-26.3 3.7c-31.8 7-61.7 22.2-86.9 43.3-15.6 13-28 29.1-38.4 46.5q-3.6 5.9-5.8 12.4c-2.9 8.2-5.8 13.3-15.4 11.8 6.2-0.3 11.2-3.1 13.2-9.2 4.4-13 12-24.2 20.1-35.2 24.4-33.2 62.4-56.3 102.2-67.8q11.9-3.4 21.1-4.7 0.1 0 5.8-1 5.2-1 10.4 0.2z"
        id="Layer"/>
  <path class="s14"
        d="m825.5 52.5q0.9 0.3 1.1 1.2 0.1 0.5 0.7 0.5c13.2 0.8 25.4 4.7 38.1 8.3q8.2 2.3 14.7 5.3c10.9 5.1 22.1 10.7 31.7 18.1 4.6 3.6 9 6.4 13.7 10.5q2.2 1.8 5.6 4.3c4.8 3.5 10 10 15.1 15.4 8.3 8.9 16.5 19.1 22.4 29.6 12.2 21.9 20.3 45 23.8 70.3q0.7 4.7 1.5 7 0.2 0.5 0.1 1c-1.6 9.8 4.5 35.6-10.2 36.8q-1.9 0.2-3.8 0.8-10-5.7-8.8-16.4c1.1-9.4 1.4-16.4-0.1-25.9-4-26.7-12.3-50.5-28.1-73.1-12.5-18-28.4-33.1-46.8-45.2 0.6-1.7-6.4-5.4-7.8-6.2q-25-13.6-53.1-18.6-1.4-0.2-4 0.3-20.9-2.9-41.8-0.5-3-0.5-5.5 0.1c-31.2 6.5-58.8 21.9-80.9 44.6-26.8 27.7-44.8 68.5-38.9 107.8q0.1 0.4 0.3 0.5 0.2 0.1 0.2 0.4c0.4 10.7 4.3 22.3 9.1 32 2.6 5.3 6.9 11 10.4 16.4q0.5 0.7 1.3 0.2c17.7 21.9 49.9 38.3 78.5 36.6 28.9-1.7 58.9-22.5 61.2-53.2 0.8-12.1-0.6-25.9-6.1-36.9-4.3-8.6-13.8-21.2-24-21.2q-0.5 0-0.6 0.5-0.5 1.4-0.3 2.7-1.2-3.6 0.8-7l12.5 2q8.3 2.5 15.3 7.8 1.6 3.2 4.5 5.4c8.8 6.8 16.6 20.6 18.9 31.3q1.2 5.2 2.9 10.3l0.1 6.7q-1 2.6-3.3 11.4-1.5 6-7.3 18.3c-8.3 17.7-28.1 30.9-45.6 38q-4.8 2-17 4.7c-1.7 0.4-4.1 0.1-6.1 1.2q-0.4 0.2-0.9 0.2l-19.8 0.5q-7-0.4-13.6-2.6-22.7-6.9-42.7-19.6c-0.8-0.5-1.2-0.4-2.1-0.3-19.5-14.3-35.3-34-42.8-57.1-6.5-20.2-8.2-41.9-4.7-62.9q3.2-11.4 5.9-22.9c0.6-2.5 2-7 2.5-10.7q1.3-4 2.4-6.4c19.7-43.2 57.6-78.1 101.6-94.3q32.8-12.1 69.8-8z"
        id="Layer"/>
  <path class="s15"
        d="m825.5 52.5c42.8 3.7 82.9 23.6 112.5 52.5q12.8 12.5 25.5 30.5c4.3 5.9 7.8 12.8 11.5 19.5q2.4 4.1 4 8.2c3.3 8.6 6.8 17.2 9.1 25.9 5.1 20 8.2 41.4 6.6 60.6q-1.2 13.3-14.7 11.9 1.9-0.6 3.8-0.8c14.7-1.2 8.6-27 10.2-36.8q0.1-0.5-0.1-1-0.8-2.3-1.5-7c-3.5-25.3-11.6-48.4-23.8-70.3-5.9-10.5-14.1-20.7-22.4-29.6-5.1-5.4-10.3-11.9-15.1-15.4q-3.4-2.5-5.6-4.3c-4.7-4.1-9.1-6.9-13.7-10.5-9.6-7.4-20.8-13-31.7-18.1q-6.5-3-14.7-5.3c-12.7-3.6-24.9-7.5-38.1-8.3q-0.6 0-0.7-0.5-0.2-0.9-1.1-1.2z"
        id="Layer"/>
  <path class="s15"
        d="m584.2 55l0.1 1.3q0 0.5-0.3 0.9c-9.9 14.7-17.2 29.9-23.9 46.3q-7.9 19.3-11 40-0.1 0.5-0.5 0.7l-0.6 0.3c2.6-21.5 9.8-41.2 19.9-61.8q8.3-16.7 16.3-27.7z"
        id="Layer"/>
  <path class="s15"
        d="m995 84q-0.2-0.2-0.5-0.2-0.4-0.1-0.5-0.4c-4.5-12.7-22.8-11.5-23.7 3.1-0.8 14.8 20 14.6 23.8 1.1q0.2-0.4 0.5-0.7 0.2-0.2 0.4-0.4c0.1 8-8.5 13.6-15.6 12.4-6.7-1.3-11-6.3-10.1-13.2q1.8-14.2 15.9-11.7 8.1 1.4 9.8 10z"
        id="Layer"/>
  <path class="s14"
        d="m995 84v2.5q-0.2 0.2-0.4 0.4-0.3 0.3-0.5 0.7c-3.8 13.5-24.6 13.7-23.8-1.1 0.9-14.6 19.2-15.8 23.7-3.1q0.1 0.3 0.5 0.4 0.3 0 0.5 0.2z"
        id="Layer"/>
  <path class="s15"
        d="m789.5 76q-42.2 7.5-75.2 35.8-39.5 34-48.9 85.1c-1.9 10-1.8 22.3 0.2 34.5 2.9 17.3 9.2 32.5 19.9 46.6q-0.8 0.5-1.3-0.2c-3.5-5.4-7.8-11.1-10.4-16.4-4.8-9.7-8.7-21.3-9.1-32q0-0.3-0.2-0.4-0.2-0.1-0.3-0.5c-5.9-39.3 12.1-80.1 38.9-107.8 22.1-22.7 49.7-38.1 80.9-44.6q2.5-0.6 5.5-0.1z"
        id="Layer"/>
  <path class="s15"
        d="m896.3 101q-30.1-18.7-65-24.5 2.6-0.5 4-0.3 28.1 5 53.1 18.6c1.4 0.8 8.4 4.5 7.9 6.2z"
        id="Layer"/>
  <path class="s14"
        d="m908 161.3q9.2 16.7 12.2 23 13.6 28.1 15.8 59.3 0.1 1.3 0.7 3.6c0.5 2.3-0.2 4.9 0.8 6.8v1.2q-1.5 15.8-1.7 31.6c0 4.9-1.6 9-6.1 10.6q-8.1 2.8-12.2-5.2-1-1.8-2.3-2.5c-0.4-13.2 0.1-28.1-0.7-39.6-1.5-20.7-5.6-40.9-15-59.4-14.4-28.2-38.8-48.3-69.5-57.9q-16.3-5.2-33.5-3.8c-2-1.6-10.8 0.2-12.9 0.9q-3.9 1.2-7.8 2.3c-34.5 9.6-58.8 39.9-60.9 75.3-1 16.7 3.4 30.6 14 43.4q1.1 1.3 2.6 1.6 0.9 1.5 2.4 2.4l-0.2 0.5q-0.2 0.4 0.2 0.8 8.4 8.2 21 13.4 5.4 2.2 8.1 8.4 0.5 1.5 0 3-1.9 2.6-4.4 4.4c-8.6 6.1-21.8-1.4-29.3-6.3q-0.7-0.5-2.1 0.2c-21.1-15.1-33.4-34.9-34.5-61.3q-0.2-7.5 0.7-14.6 2.4-9.9 4.8-19.8 1.2-5 3.5-10.9 2.2-5.4 4-10.9c17.7-31.7 47.6-50 83-55.6 44.9-7.1 93.7 18.8 119.3 55.1z"
        id="Layer"/>
  <path class="s15"
        d="m1020.9 124.4c0 1.6-0.3 3.3-0.9 4.8-0.7 1.5-1.6 2.9-2.7 4-1.2 1.2-2.6 2.1-4.1 2.8-1.5 0.6-3.2 0.9-4.8 0.9-1.7 0-3.3-0.3-4.8-0.9-1.5-0.7-2.9-1.6-4.1-2.8-1.1-1.1-2.1-2.5-2.7-4-0.6-1.5-1-3.2-1-4.8 0-1.7 0.4-3.3 1-4.8 0.6-1.5 1.6-2.9 2.7-4.1 1.2-1.2 2.6-2.1 4.1-2.7 1.5-0.6 3.1-1 4.8-1 1.6 0 3.3 0.4 4.8 1 1.5 0.6 2.9 1.5 4.1 2.7 1.1 1.2 2 2.6 2.7 4.1 0.6 1.5 0.9 3.1 0.9 4.8zm-1.6 0c0-1.5-0.3-2.9-0.9-4.3-0.5-1.3-1.4-2.6-2.4-3.6-1-1.1-2.3-1.9-3.6-2.5-1.4-0.5-2.9-0.8-4.3-0.8-1.5 0-3 0.3-4.3 0.8-1.4 0.6-2.6 1.4-3.7 2.5-1 1-1.8 2.3-2.4 3.6-0.6 1.4-0.9 2.8-0.9 4.3 0 1.5 0.3 2.9 0.9 4.3 0.6 1.4 1.4 2.6 2.4 3.6 1.1 1.1 2.3 1.9 3.7 2.5 1.3 0.5 2.8 0.8 4.3 0.8 1.4 0 2.9-0.3 4.3-0.8 1.3-0.6 2.6-1.4 3.6-2.5 1-1 1.9-2.2 2.4-3.6 0.6-1.4 0.9-2.8 0.9-4.3z"
        fill-rule="evenodd"
        id="Layer"/>
  <path class="s14"
        d="m1008.1 135.6c-6.2 0-11.3-5-11.3-11.2 0-6.2 5.1-11.2 11.3-11.2 6.2 0 11.2 5 11.2 11.2 0 6.2-5 11.2-11.2 11.2z"
        id="Layer"/>
  <path class="s15"
        d="m796.5 129c-46.8 3.5-84.3 41.9-80.3 89.8 1.1 12.7 7.2 24.1 15.3 33.7q-1.5-0.3-2.6-1.6c-10.6-12.8-15-26.6-14-43.4 2.1-35.4 26.4-65.7 60.9-75.3q3.9-1.1 7.8-2.3c2.1-0.7 10.9-2.5 12.9-0.9z"
        id="Layer"/>
  <path class="s14"
        d="m828.7 165.3q7.7 5 16 8.7 3.9 1.8 12.3 8.9c1 0.8 1.5 2.1 2.6 2.8 2.4 1.5 5 3.6 6.4 5.3 12.8 15.8 19.5 32.1 23.9 52.1q0.2 0.8 1.3 0.9 1.3 7.9 1.6 16c-0.4 2.4-0.9 4.6-0.8 7 0.3 15.3-3.6 30.6-8.6 43.2-14.7 37.3-51.1 64-89.3 74-3 0.8-6.7 1.2-10.1 3-22 4.1-42.1 3.1-64-2.5-0.1-1.2-5.3-2.9-6.7-3.3-21.2-6.5-40.7-16.7-58.3-30.2q-0.5-0.4-1.8-0.2c-6.4-5.1-29.1-22.8-29.1-30.9-0.1-9.4 7.6-17.4 17.1-10.5q0.3 0.2 5.6 5.7c35.7 36.5 92.1 61.6 143.2 46.9q0.8 1 1.9 0.7 9.4-2.6 18.2-6.6 3.7-1.2 6-3.5 8.6-4.1 15.6-10.5c18.6-14.7 34.8-36.5 37.3-60.8q2-8.6 1.7-16.5c-1.5-34.3-14.2-67.3-49.7-78.5q-4.7-1.5-11.5-1.5-15.3-0.4-28.1 8.2-1.1 0.7-1.2 1.8c-6 0.5-12 15.8-13 20.7q-2 2-0.2 4.3-0.1 3.6 1.7 6.5 4.7 10.5 15.5 10.1c8.1-0.3 4.3-10.2 6.9-14.3q2.6-4.1 7.6-5.1l1-0.2 0.8-0.3 5.1 2.7c7.4 11.5 5.1 26.4-6.3 34.4q-16.8 11.9-34.3 1-0.6-0.4-1.3 0.2l-3-2q0.4-0.7-0.1-1.1-5.2-4.7-10.2-9.8-5.8-7.8-6.3-16.6c-2.8-45.5 43.1-76.3 84.6-60.2z"
        id="Layer"/>
  <path class="s15"
        d="m651.7 161.3c-0.5 3.6-1.9 8.1-2.5 10.6q-2.7 11.5-6 22.9 2.2-17.3 8.5-33.6z"
        id="Layer"/>
  <path class="s15"
        d="m908 161.3q2.2 2.3 3.1 3.6 25.9 40.6 26.4 89.1c-1-1.9-0.3-4.5-0.8-6.8q-0.6-2.3-0.7-3.6-2.2-31.2-15.8-59.3-3-6.3-12.2-23z"
        id="Layer"/>
  <path class="s15"
        d="m705.7 161.8q-1.8 5.5-4 10.9-2.3 5.8-3.5 10.9-2.4 9.9-4.8 19.8 1.5-18.3 8.6-35.2 1.4-3.4 3.7-6.4z"
        id="Layer"/>
  <path class="s15"
        d="m599.3 186.1q6 3.9 11.7 2.1c6.7-2 10.1-8.9 7.3-15.5q-3.7-8.6-15.1-7.1c-3.6 0.5-6.2 4.9-8.4 7.4 5.7-18.2 31.6-6.3 24.4 9.7-3.4 7.6-13.6 9.8-19.9 3.4z"
        id="Layer"/>
  <path class="s14"
        d="m599.3 186.1q-6.3-4.8-4.5-13.1c2.2-2.5 4.8-6.9 8.4-7.4q11.4-1.5 15.1 7.1c2.8 6.6-0.6 13.5-7.3 15.5q-5.7 1.8-11.7-2.1z"
        id="Layer"/>
  <path class="s15"
        d="m828.7 165.3q11.5 3.3 23.6 12.2c22.5 16.5 34.2 39.3 38.9 66.5q-1.1-0.1-1.3-0.9c-4.4-20-11.1-36.3-23.9-52.1-1.4-1.7-4-3.8-6.4-5.3-1.1-0.7-1.6-2-2.6-2.8q-8.4-7.1-12.3-8.9-8.3-3.7-16-8.7z"
        id="Layer"/>
  <path class="s15"
        d="m568.2 181.3c0.4 5.9 0.5 12.2 1.7 17.9q1.4 6.5 3.4 12.8 1.6 4.9 1.3 7.6c-1.3 11.6-18 13-21.9 3q1.9 1.9 4.1 3.5 2 1.4 4.4 1.4c13.7 0.2 14.3-8.7 9.8-19-0.9-1.9-1.1-4.4-1.7-6.8q-2.5-9.3-1.1-20.5z"
        id="Layer"/>
  <path class="s16"
        d="m809.5 185q-2.5 3.6-1.2 7.9 0.2 0.5 0.6 0.7l1.9 1.3q0.5 0.3 0.2 0.8l-2.2 3.8q-1.3 0.4-1.3 2l-12.5-2q-5.2-0.7-10.5-0.1c-0.7 0.1-1.2-0.2-1.3-0.9l-2.9-3.5q0-1.1 1.1-1.8 12.8-8.6 28.1-8.2z"
        id="Layer"/>
  <path class="s17"
        d="m809.5 185q6.8 0 11.5 1.5c35.5 11.2 48.2 44.2 49.7 78.5q0.3 7.9-1.7 16.5-2 7.6-4.5 15.1c-6 17.2-18.6 32.4-32.6 43.7-0.7 0.6-1.1 1.4-0.2 2q-7 6.4-15.6 10.5-1.9-3.1-0.4-4.8 17.2-18.6 28.7-38.1c10.6-18 14.1-41.9 11.4-62.4-3-22.5-21.6-43.3-42.5-51.2q-0.5-0.1-0.8 0.2l-3.7 3 2.2-3.8q0.3-0.5-0.2-0.8l-1.9-1.3q-0.4-0.2-0.6-0.7-1.3-4.3 1.2-7.9z"
        id="Layer"/>
  <path class="s17"
        d="m783.2 198.5c0.1 0.7 0.6 1 1.3 0.9q5.3-0.6 10.5 0.1-2 3.4-0.8 7 0 0.1 0.1 0.2 0 2.4 1.2 4c0.4 0.5 5.2 4.6 4.2 6.3l-1 0.2q0.1-0.7-0.4-0.6-10.8 1.9-9.5 13.2c1 7.4-10.3 5.6-13.8 3-2-1.5-3.7-4.4-6.3-6.3q-1.8-2.9-1.7-6.5l0.7-2q4-12.8 15.5-19.5z"
        id="Layer"/>
  <path class="s18"
        d="m794.3 206.8q2.3 4.3 5.8 7.7 0.4 0.4 0.4 0.9v1.3l-0.7 0.3c0.9-1.7-3.9-5.8-4.3-6.3q-1.2-1.6-1.2-4z"
        id="Layer"/>
  <path class="s15"
        d="m822.8 209.3c15.5 10.9 25.5 28 26.3 47q-1.7-5.1-2.9-10.3c-2.3-10.7-10.1-24.5-18.9-31.3q-2.9-2.2-4.5-5.5z"
        id="Layer"/>
  <path class="s18"
        d="m767.2 215.8q-0.3 1.2 0.5 2.2l-0.7 2q-1.8-2.3 0.2-4.3z"
        id="Layer"/>
  <path class="s16"
        d="m798.8 217.2q-5.1 1-7.7 5.1c-2.6 4.1 1.3 14-6.8 14.3q-10.9 0.4-15.5-10.1c2.6 1.9 4.2 4.8 6.2 6.3 3.5 2.6 14.8 4.4 13.9-3q-1.4-11.3 9.4-13.2 0.5-0.1 0.5 0.6z"
        id="Layer"/>
  <path class="s15"
        d="m805.6 219.4q7.6 8 5.2 18.6c-4.9 21.1-29.7 30.2-47.1 17q0.7-0.6 1.3-0.2 17.5 10.9 34.3-1c11.4-8 13.7-22.9 6.3-34.4z"
        id="Layer"/>
  <path class="s14"
        d="m540 295.8q0.4 2.2 2.5 3.3 0.3 0.2 0.3 0.4c0 0.5-0.1 0.6 0.1 1 9.8 18.9 17.1 32 13.9 52.5l0.3 1.3q0.1 0.6 0.6 0.6 16.2 1.9 26.7 14.2c11.5 13.4 20.7 26.9 34.9 39.3 9.4 8.2 18.3 13.2 30.8 18.6 21.3 9.1 34.4 13.8 50 23.4 10.8 6.6 21.5 16.5 26.4 27.9q8.6 21.3 12.7 34.4 4.7 14.7 8.7 34.8c0.4 2.1 2 17.4 2.6 17.9q0.3 0.2 0.3 0.7l0.3 22q0 0.5 0.3 0.8c1.1 1.1 0.4 4.2 0.8 6.1q0.7 38.9 0.1 77.8-0.1 2.8-0.3 5.7-1.6 4.1-2.2 5.3-4.7 9.4-15.5 9.3-32.4-0.3-64.8 0.1-0.9 0-2.5 1l-4.6-0.8q-5 0.9-9.9 2.2-4.5 1.3-7.7 1.2c-11.2-0.1-18.9-3.8-29-7.5q-4.1-2.4-5.7-3.9-25.7-23.8-21.1-59.4c0.5-4.5-3-6-5.4-8.6q-6.5-6.8-14.9-11.1c-3.9-1.9-7.8-4.4-11.4-6.2-25.8-12.9-52.2-25.8-75.8-41.9q-8.7-5.9-18.2-16.2-1.5-1.7-2.3-3c-3-5.2-6.8-11.5-8.1-17.3q-0.8-3.2-1.6-5.1c-2.8-5.9-4.8-12.6-7.6-17.9q-3.4-6.4-7.5-12.4c-0.7-1-0.8-2.2-2.1-3.1q-0.3-0.2-0.6-0.7c-4.3-8.3-10.3-15.9-15.5-23.8-3.1-4.8-7.2-8.5-10.9-12.8q-1.5-1.8-3.6-2.7-9.7-9.5-8.5-23.2 0.4-0.7 1-1.2 0.4-0.3 0.4-0.8l-0.2-70.3q0-0.4-0.3-0.6-0.7-0.6-0.9-1.6c-0.5-5.3-0.1-12-0.1-15.8q-0.1-24.3-0.1-48.7c-0.1-9.9 1.9-15.2 7.4-23.3 11.8-17.4 23.3-36.4 44.6-36.7 2.1 0 6.2 1.3 8.3 2.6q15.9 9.3 18.1 28.1 0.1 0.5 0.6 0.6c9.8 1.6 18.9 2.5 26.2 10.4q11.3 12.3 10.8 29.9c0 0.3-1.2 2.5-0.6 3q0.3 0.3 0.6 0c7.8-6.5 22-8.8 29.2 0.2zm-117.1-26.5q-5.9 10.1-6.2 19.2-0.5 23.9 0.2 86.5 0 0.5 0.5 0.5l4.1-0.3 0.3-0.4q6.9 1.6 13.9 1.1 0.5 0 0.9 0.2 0.9 0.4 1.8 0.4 0.6-0.1 0.5-0.7l-0.2-24.1q0.1-18.6 0.2-37.3c0.2-20.7 5.5-36.2 13.2-56.2 0.2-0.5 0.1-1.4 0.1-1.9l0.3-0.4q0.2-0.3 0.2-0.7 0-5.9-1.9-9.9c-3.6-7.4-13.3-0.9-16.6 3.4q-7 9.6-11.3 20.6zm37.1 43.2l0.5 15.4q-0.6 29.8 0.7 59.4 0.1 3.4 0.7 4.3 12.5 22.6 27.7 43.4c0.5 0.7 1.4 1 2.1 1.5q-0.1 0-0.3 0-0.3 0.1-0.2 0.4l4.3 6.6v2.5q0 0.6 0.4 0.9 3.4 3.5 5.7 7.9 0.2 0.4 0.6 0.7 0.6 0.5 1.6 1.7 4.1 5.6 7.9 11.4c0.8 1.2 2 1.8 2.9 3.1 9.5 13.8 18.4 27.1 32.6 36.5 4.3 2.8 9.8 5.5 14.7 8.1 5.7 3 13 5.8 18.7 9.1q2.3 1.4 4.4 2.1c12.9 5 25.1 11.3 38.1 16.7 8.9 3.6 18.6 10.4 23.7 19.1q3 5.1 6.1 10.2 1 1.2 1.2 2.8 0 0.5 0.5 0.6l9.9 2.2q8.3 4.7 16.8 9.1c4.9 2.5 10.6 8.1 14.1 13.5 6 9.2 9.9 16.5 11.9 27.2 0.2 0.6 0.6 1 1.2 0.6l0.8 2.8q-0.8 3.3-0.3 6.7c-1.8 9.6-6.7 27-14.3 33.5q-0.1 0.1-0.1 0.3-0.1 0.1 0 0.3 0 0.2 0.2 0.3 0.1 0.1 0.3 0.1l18.6-0.2 16.2-0.4q0.3 0 0.6-0.2 0.3-0.1 0.6-0.3 0.2-0.3 0.3-0.6 0.2-0.3 0.1-0.7l-0.3-33.6q0.4-3-0.4-5.5 0.5-19.5-0.6-38.9c-0.2-4.5 0-9.8-0.3-13.5-1.9-30.6-7.4-58.4-20.7-85.8-3.4-7.1-8.6-15.8-14.9-20.7q-2.4-1.7-4.7-3.5-5.3-4.5-10.6-6.8-16.4-7.4-41.7-17.6c-9.9-4-22.3-11.7-31.7-20-0.7-0.6-1.4-0.7-1.9 0.1q-8.8-7.7-16.6-16.5c-6.6-7.4-12.3-16.5-18-25.2q-4.3-6.4-11.8-7.6c-2.6-0.4-6.9 0-9.1 1q-13.7 6.2-7.1 20.3c2.9 5.3 5.5 10.4 9.6 15.1q12.9 15 25.7 30.2c2.9 3.5 5.4 11 3.2 15.3q-2 3.9-7.1 4.8-0.2-0.9-1-1c-5.3-1.1-7.8-2.7-11.5-7q-8.7-10.4-11.6-12.8c-36.6-29.3-70.6-54.3-70.2-107.9q0.7-10.9 2.9-21.6c1.9-8.9 7.9-21.1 7.7-29.1q-0.3-9.7-8.9-13.2-10.3-0.1-13.7 8.6-6.7 16.8-6.2 33.8zm66.8 55.4q2.7-3.7 7.4-5.4c2.5-0.9 1.9-4.8 2.3-6.7v-14q-0.2-14.1-6.1-26.8-6.1-4.8-12.9-1.5c-10.3 5-15.6 19.7-15.8 30-0.3 19.4 9.4 31.5 19.2 47.5q0.1 0.3 0.1 0 0.5-12.2 5.8-23.1zm-101.9 63.7c11.8 8.1 21.8 2.7 26.3-9.8q0.2-0.4 0-0.9c-3.1-8.1-7.9-19.4-14.9-24.2-11.4-8-31.4 0.1-23.8 16.6 2.7 6 7.2 14.6 12.4 18.3zm22.5 33.3l16.2 27.4q0.2 0.4 0.7 0.2 10-6.6 18.2-15.5 3.4-0.3 5.6-3.1 0.4-0.5 0-0.9c-8.8-10.9-15.4-22.9-22.9-35.1q-0.1-0.1-0.2-0.2-0.1 0-0.2 0-0.2 0.1-0.2 0.2-0.1 0-0.1 0.2c-0.2 2.8-1.7 4.8-3.6 7.4q-7.2 9.6-19.3 10-0.4 0-0.1 0.4zm40.5 36.6l-15.3 11q-0.4 0.3-0.3 0.8 1.7 6.8 5 13 1.4 2.5 3.8 2.8c4.9 6.6 14.1 13 20.6 16.9q22.3 13.5 45.7 25.1c15.9 8.1 30.4 15.8 44.3 26.7q3.3 2.5 5.5 5.4 0.4 0.4 0.8 0c8-9.8 20.6-23.1 34.3-23.2q0.3 0 0.5-0.1 0.2-0.2 0.3-0.4 0.2-0.2 0.1-0.5 0-0.3-0.1-0.5c-6.6-9.4-13.3-13.2-25.7-18.5q-9.1-3.9-18.2-7.8c-0.7-0.3-1.5-0.2-2.3-0.3q0.2-0.5-0.4-0.7-19-8.5-40.6-20.5c-19.3-10.7-31.9-24.4-45.7-41.2q-0.8-0.9-1.5 0.1-4.2 6.5-10.8 11.9zm123 141.7q3 18.4 19 27.5c10.4 6.2 21.8 6.2 32.7 1.9 14.6-5.7 23.6-17.3 23.9-33.2 0.3-12.7-2.7-21.6-11.4-30.8q-9.9-10.5-24.4-10.9c-24.4-0.8-44.3 20.6-39.8 45.5z"
        fill-rule="evenodd"
        id="Layer"/>
  <path class="s15"
        d="m1153 289q-1.3-4.9-1.6-9.9-0.2-3.6-1.1-6.1-6.9-19.1-20.1-34.7c-5.7-6.8-13.5-13.6-22.4-15.4-3.2-0.6-6.2 0.6-9.8-0.4 11.9-3.3 19.5 1.7 28.4 10 9.2 8.6 15.9 19.8 21.8 30.9 4.5 8.5 4.9 15.6 4.8 25.6z"
        id="Layer"/>
  <path class="s14"
        d="m1098 222.5c3.6 1 6.6-0.3 9.8 0.4 8.9 1.8 16.7 8.6 22.4 15.4q13.2 15.6 20.1 34.7 0.9 2.5 1.1 6.1 0.3 5 1.6 9.9l0.2 104-0.6 1.7q-0.1 0.5 0 1c4.2 13.6 3.1 27-3.5 39.5-6.1 11.6-15.6 20-22.9 30.6q-9.2 13.5-14.7 22.7-6.8 11.6-8.7 17.8-6 18.5-8.3 24.5c-4.8 12.6-16.6 22.4-27.8 29.5-17.5 11.1-37.1 21.8-56.4 31.9q-14.1 7.4-27.7 15.5c-2.5 1.5-17.9 11.6-18.6 13.8q0 0.1 0 0.2c-1.8 3.9 0.5 11.8 0.6 16 0.1 29.3-18.4 54-47.5 59.4q-6.9 1.3-14.8 0.2-9.3-1.3-18.2-4.3-1.5 0.1-2.8-0.9-1.9-0.6-3.6 0.6-0.4 0.3-0.9 0.3-33.5 0-67-0.2c-5.8 0-10.6-6.1-12.6-10.8q-1.3-3.1-1.4-8.3-0.5-62.9-0.3-90.9 0.1-7.8 1.8-20.2c0.3-2 0.1-4.2 0.4-6.4 3-26.2 10.2-54.7 22.8-77.7q0.2-0.4 0.1-0.9l-0.4-1.1q7.4-13.8 20-23 0.7-0.1 1.3 0.3 0.4 0.2 0.8 0 11.4-7.1 15.4-8.4 11.5-3.9 22.1-10 11-5 15.9-7c18.5-7.4 31.5-18.1 43.8-33.7q15.6-19.7 22.3-26.6 11.3-11.7 27.7-12.2 0.1 0 0.2 0 0.1-0.1 0.1-0.1 0.1-0.1 0.1-0.2 0-0.1 0-0.2c-1.9-8.9-3.6-18.5-2.4-27.3q2.3-16.2 11.8-29.1 9.4-12.7 24.6-8.4c3.6 1 7.3 3.3 10.7 5.4q0.2 0.1 0.4 0.1 0.2 0 0.4-0.1 0.2-0.1 0.3-0.3 0-0.2 0-0.4c-3.3-23.8 15.2-45.7 40.1-41.5q0.5 0.1 0.7-0.4c0.7-1.4 0.4-3 0.7-4.2 2.3-11.7 9.2-22.5 20.8-26.7zm-2.7 33.5c-1.7 3.8 1.8 8.2 2.9 11.7 3.7 11.9 7.8 22.9 9.2 36.2q0.7 6.6 0.6 16.3-0.4 27.8-0.4 55.6 0 0.5 0.5 0.4l2.9-0.4q8.4-0.9 17.1-0.6l3.1 0.8q0.2 0 0.3 0 0.2-0.1 0.3-0.2 0.1 0 0.2-0.2 0-0.1 0-0.2-0.5-33.7-0.7-66.6 0-13.7-1-20c-2.2-14.2-8.9-36.6-22.3-45-4.6-2.8-8.8-2.2-11.1 2.9q-2.2 4.7-1.6 9.3zm-28.8 14.8c-16.4 2.5-7.1 26.8-4.3 36.4 2.6 9.4 3 18.7 3.3 28.3q0.3 44.9-29.3 75.8-3.9 4.2-14.8 13.4-17.1 14.6-33.6 29.8c-3.5 3.2-7.1 5.4-11.1 7.8-12-0.5-12.3-11.3-6.5-18.8q4.3-5.4 8.7-10.7c9.4-11.4 33-31.8 23.4-48.8q-4.1-7.3-14.8-6.8-9.8 0.7-14.5 8.6-11.9 19.5-27 34.6c-25 24.9-57.5 32.6-90.5 48.9-9.2 4.5-14.6 12.4-18.7 21.5q-5.9 12.8-10.4 26.1c-4.3 12.9-6.9 26.3-9.4 40.3q-1.6 8.4-0.5 16.1c-0.8 21.6-0.3 43.2-0.8 64.8q-0.2 10 0.8 19.9-1 4.6 0 9.3l0.2 4.3q0 0.4 0.4 0.4 17.4 0.8 34.9 0.5h3.2q0.6 0 0.2-0.6-5.5-6.8-8.6-15.1-0.2-0.5-0.7-0.5l-2.1-0.1 1.6-0.2q0.5-0.1 0.5-0.6 0-2.7-0.9-8.2c-4.5-29.7 11.1-55.9 38.9-66.8 4.3-1.7 9.2-2.6 14-3.5q0.6-0.1 0.7-0.6 7.7-22.8 28.4-32.9c18-8.8 38.4-16 56.4-27.1 7-4.3 15.6-8.6 21.1-12.7q9.6-7 16.8-16.1 18.8-23.5 38.3-51.4 0.7-1 0.7-2.1l0.8-0.5q1.3-1.4 3.7-5.5 5.3-9.1 10.4-18.3c5.6-9.9 8.7-15 9.2-24.8q0.9-14.7 0.9-25.1 0.3-12.8 0.4-25.6c0.2-9.2 2.4-18.3 2.1-27.2-0.4-9.5-3.3-17.9-6.4-26.3-2.4-6.5-7.6-12-15.1-9.9zm-50 42.1q-9.4 12.2-8.2 27.9l1.1 19.9q0 0.6 0.4 0.9 1.4 1.3 3.5 1.4 5.4 1.3 7.5 6.5c1.1 4.9 4.8 16.2 3.7 20.7q0 0.1 0 0.2 0.1 0.1 0.2 0.1 0.1 0.1 0.2 0.1 0.1 0 0.2-0.1c11.8-14.9 18.1-31.4 17.6-50.4q-0.5-14.5-12.2-24.1-6.2-4.9-14-3.1zm84.5 101q-0.6 2.7-1.3 5.3c-1.9 6.2 5.1 12.5 10.1 14.6 13.5 5.9 22.2-7.3 26-17.8 4.8-13-1-23.4-16.3-22.2-2.2-1.3-7 2.3-8.3 3.6q-7.3 6.9-10.2 16.5zm-19.8 31.3l-16.8 29.1q0 0.2-0.1 0.3 0 0.2 0 0.4 0.1 0.1 0.1 0.3 0.1 0.1 0.2 0.2l20.8 17.5q0.4 0.3 0.6-0.2 8.8-17.8 20-34.3l1.5-1.7q0.3-0.5-0.2-0.5c-10.1-1.6-17.6-9.9-22.5-18.2q-0.3-0.6-0.6 0zm-114.5 105.5q-20.7 8.1-34.8 15.9-4.9 2.8-9.6 8.9l-2 2.8q-1.6 1.9 3.5 0.1c10.1 4.4 25.4 14.1 30.8 24.1q0.3 0.4 0.6 0 8.6-10.4 21-16.9 18.7-9.8 33.1-16.7 8.4-4.1 16.2-9.2 3.6-1.4 7-3.4c3.3-2.1 7.4-3.7 10.7-6.3 8.8-5.7 20.4-11.3 26.3-20 5.8-2.8 7.6-12.3 8.1-17.8q0.1-0.4-0.4-0.7c-9.9-5.8-17.9-13.4-26.7-20.8l-0.8-0.6q-0.4-0.4-0.7 0c-12.8 15.3-24.8 28.6-41.6 39.1q-15.6 9.7-40.6 21.5zm-96.8 70.8c-8.5 18.7 0.5 42.9 20.1 51 33.4 13.8 64.3-15.4 51-49.8-4.9-12.8-17.8-23.2-31.5-24.5-17.3-1.6-32.6 7.8-39.6 23.3z"
        fill-rule="evenodd"
        id="Layer"/>
  <path class="s18"
        d="m452.2 256.3c-2.9-1.2-5.3-4.4-8.3-6-8-4.3-19.8 30.4-21.3 34.7q-1.1 3.6-1.2 7.6-0.4 16.5 0.1 32.9-0.6 14.6 0.4 29.3-0.5 3.1 1 4.1-1.4 7.8-1.1 15.8l-0.3 0.5q0-1.8-2-1.4-0.2 0.1-0.4 0-0.3 0-0.4-0.2-0.2-0.1-0.3-0.3-0.1-0.2-0.1-0.4c0-17.4-1.2-36.8-0.2-55 0.7-11-0.3-22 0.5-33.1q0.5-6.5 2.9-10.3 1.8-2.8 1.4-5.2 4.3-11.1 11.3-20.6c3.3-4.3 13.1-10.8 16.6-3.5q1.9 4.1 1.9 10 0 0.4-0.2 0.7z"
        id="Layer"/>
  <path class="s18"
        d="m1128.1 375.2c-0.2-8-0.8-16.2-0.8-23.9q0.1-25.2-0.3-50.3-2.3-12.6-3.3-16.2-3.3-11.4-12.9-29.1c-4.4-8.2-10.7-5-15.5 0.3q-0.5-4.6 1.6-9.3c2.3-5.1 6.5-5.7 11.1-2.9 13.4 8.4 20.1 30.8 22.3 45q1 6.3 1 20 0.2 32.9 0.7 66.6 0 0.1 0 0.2-0.1 0.2-0.2 0.2-0.1 0.1-0.3 0.2-0.1 0-0.2 0z"
        id="Layer"/>
  <path class="s15"
        d="m750.4 242.1q5 5.1 10.2 9.8 0.5 0.4 0.2 1.1-6.7-4-10.4-10.9z"
        id="Layer"/>
  <path class="s19"
        d="m452.2 256.3c0 0.5 0.1 1.4-0.1 1.9-7.7 20-13 35.5-13.2 56.2q-0.1 18.7-0.2 37.3-4 4.3-5.4 10.2-0.1 0.4-0.4 0.7-0.3 0.4-0.6 0.6-0.4 0.1-0.9 0.1-0.4 0-0.8-0.2l-7.7-4.2q-1.5-1-1-4.1 0.8-14.7-0.4-29.3-0.5-16.4-0.1-32.9 0.1-4 1.2-7.6c1.5-4.3 13.3-39 21.3-34.7 3 1.6 5.4 4.8 8.3 5.9zm-25.3 31c0.2 0.1 0.6 0 0.8-0.2q4.7-4.2 11.2-4.6 0.6-0.1 0.6 0.5c-0.1 2.3-1.5 4.6 0 6.7q0.1 0.1 0.2 0.2 0.2 0 0.3 0 0.2-0.1 0.3-0.2 0.2-0.1 0.2-0.3l1.1-6.6q0.1-0.5-0.2-0.8c-3.6-4-12.8 1.1-15.6 4q-0.1 0.1-0.1 0.2-0.1 0.1-0.1 0.2 0 0.1 0.1 0.2 0 0.1 0.1 0.1 0.3 0.3 0.6 0.4 0.1 0 0.5 0.2z"
        fill-rule="evenodd"
        id="Layer"/>
  <path class="s16"
        d="m1127 301l-2 0.6q-0.5 0.1-0.8-0.3c-2.4-5.5-6.8-8.5-11.4-12.1q-0.1-0.1-0.3-0.1-0.2 0-0.4 0-0.2 0.1-0.3 0.2-0.1 0.2-0.2 0.4l-0.9 3.9q-0.1 0.5 0.1 1.1 4.1 8.6 4.4 17.1 1.1 25.5 0.3 58.4-0.1 1.9-0.3 3.1-0.1 0.5-0.6 0.6c-1.4 0.3-3.5-0.2-3.6 1.9l-2.9 0.4q-0.5 0.1-0.5-0.5 0-27.7 0.4-55.5 0.1-9.7-0.6-16.3c-1.4-13.3-5.5-24.3-9.2-36.2-1.1-3.5-4.6-7.9-2.9-11.7 4.8-5.3 11.1-8.5 15.5-0.3q9.6 17.7 12.9 29.1 1 3.6 3.3 16.2z"
        id="Layer"/>
  <path class="s15"
        d="m733.9 254.9q7.8 7.5 17.9 11.8c5.2 2.3 10.7 4.5 11.2 11.3q-2.7-6.2-8.1-8.4-12.6-5.2-21-13.4-0.4-0.4-0.2-0.8z"
        id="Layer"/>
  <path class="s15"
        d="m937.5 255.3q0.5 4.3 0.3 7.4-0.8 12.6-0.8 25.1-0.1 3.4-1.3 5.5c-6 10.5-17.5 6.7-20.5-3.6q1.3 0.7 2.3 2.5 4.1 8 12.2 5.2c4.5-1.6 6.1-5.7 6.1-10.6q0.2-15.8 1.7-31.6z"
        id="Layer"/>
  <path class="s15"
        d="m892.8 260c5 64.5-47.7 117.8-108.8 127.2 3.4-1.8 7.1-2.2 10.1-3 38.2-10 74.6-36.7 89.3-74 5-12.6 8.9-27.9 8.6-43.2-0.1-2.4 0.4-4.6 0.8-7z"
        id="Layer"/>
  <path class="s15"
        d="m849.2 263q-2.6 20.7-13 36.5c-17.2 26-56.5 42.5-87 37.8l19.8-0.5q0.5 0 0.9-0.2c2-1.1 4.4-0.8 6.1-1.2q12.2-2.7 17-4.7c17.5-7.1 37.3-20.3 45.6-38q5.8-12.3 7.3-18.3 2.3-8.8 3.3-11.4z"
        id="Layer"/>
  <path class="s16"
        d="m422.9 269.3q0.4 2.4-1.4 5.2-2.4 3.8-2.9 10.3c-0.8 11.1 0.2 22.1-0.5 33.1-1 18.2 0.2 37.6 0.2 55q0 0.2 0.1 0.4 0.1 0.2 0.3 0.3 0.1 0.2 0.4 0.2 0.2 0.1 0.4 0 2-0.4 2 1.4l-4.1 0.3q-0.5 0-0.5-0.5-0.7-62.6-0.2-86.5 0.3-9.1 6.2-19.2z"
        id="Layer"/>
  <path class="s17"
        d="m479.9 270.1q1.2 4.6-0.4 8.6-0.9 2.4-5 6.4c-8.3 8.3-11.9 12.7-11.7 25.2q0 0.5-0.3 0.9-0.9 1.2-2.5 1.3-0.5-17 6.2-33.8 3.4-8.7 13.7-8.6z"
        id="Layer"/>
  <path class="s16"
        d="m479.9 270.1q8.6 3.5 8.9 13.2c0.2 8-5.8 20.2-7.7 29.1q-2.2 10.7-2.9 21.6l-0.3 0.2q-0.3 0.3-0.6 0.1l-16.8-6.4-0.5-15.4q1.6-0.1 2.5-1.3 0.3-0.4 0.3-0.9c-0.2-12.5 3.4-16.9 11.7-25.2q4.1-4 5-6.4 1.6-4 0.4-8.6z"
        id="Layer"/>
  <path class="s17"
        d="m1085.5 359.8l-0.8 0.2q-0.4 0.1-0.4 0.6 0.2 13-0.8 25.9c-0.7 8.5-5.3 16.8-9.7 24-4.5 7.4-7.9 14.3-12.3 21.2q-0.3 0.4-0.3 0.9l0.1 0.9-0.8 0.5c-0.5-1.1-8.7 4.8-10.1 5.9q-6.6 5.1-20.1 10.6c-17.2 7.1-31.1 12.5-48.1 14q-3.5 0.3-5.5-2.3c4-2.3 7.6-4.5 11.1-7.7q16.5-15.2 33.6-29.8 10.9-9.2 14.9-13.4 29.5-30.9 29.2-75.8 7.4-2 14.3-5.3c5.5-2.6 3.3-6.7 4.3-11.3 1.7-8.2 2.4-15.4-2.2-22.8q-4.1-6.7-12.3-12.6c-4.6-3.3-6.3-7.6-3.1-12.8 7.5-2 12.7 3.5 15.1 10 3.1 8.4 6 16.8 6.4 26.3 0.3 8.9-1.9 18-2.1 27.2q-0.1 12.8-0.4 25.5z"
        id="Layer"/>
  <path class="s16"
        d="m1066.5 270.8c-3.2 5.1-1.5 9.4 3.1 12.7q8.2 5.9 12.3 12.6c4.6 7.4 3.9 14.6 2.2 22.8-1 4.6 1.2 8.7-4.3 11.3q-6.9 3.3-14.3 5.3c-0.3-9.6-0.7-18.9-3.3-28.3-2.8-9.6-12.1-33.9 4.3-36.5z"
        id="Layer"/>
  <path class="s15"
        d="m763 281c-6.2 15.5-26.8 4.4-35.8-1.7q1.4-0.7 2.1-0.2c7.5 4.9 20.7 12.4 29.3 6.3q2.5-1.8 4.4-4.4z"
        id="Layer"/>
  <path class="s16"
        d="m426.4 287q-0.3-0.1-0.6-0.4-0.1 0-0.1-0.1-0.1-0.1-0.1-0.2 0-0.1 0.1-0.2 0-0.1 0.1-0.2c2.8-2.9 12-8 15.6-4q0.3 0.3 0.3 0.8l-1.2 6.6q0 0.2-0.2 0.3-0.1 0.1-0.3 0.2-0.1 0-0.3 0-0.1-0.1-0.2-0.2c-1.5-2.1-0.1-4.4 0-6.7q0-0.6-0.6-0.5-6.5 0.4-11.2 4.6c-0.2 0.2-0.6 0.3-0.8 0.2q-0.4-0.2-0.5-0.2z"
        id="Layer"/>
  <path class="s16"
        d="m869 281.5c-2.5 24.3-18.7 46.1-37.3 60.8-0.9-0.6-0.5-1.4 0.2-2 14-11.3 26.6-26.5 32.6-43.7q2.5-7.5 4.5-15.1z"
        id="Layer"/>
  <path class="s19"
        d="m1127 301q0.4 25.1 0.3 50.3c0 7.7 0.6 15.9 0.8 23.9q-8.7-0.3-17.1 0.6c0.1-2.1 2.2-1.6 3.6-1.9q0.5-0.1 0.6-0.6 0.2-1.2 0.3-3 0.8-33-0.3-58.5-0.3-8.5-4.4-17.1-0.2-0.6-0.1-1.1l0.9-3.9q0.1-0.2 0.2-0.4 0.1-0.1 0.3-0.2 0.2 0 0.4 0 0.2 0 0.3 0.1c4.6 3.6 9 6.6 11.5 12.1q0.2 0.4 0.7 0.3z"
        id="Layer"/>
  <path class="s15"
        d="m540 295.8c5.6 5.5 9.2 13.4 12.5 20.4 4.8 10.3 8.4 25.5 4.3 36.8 3.2-20.5-4.1-33.6-13.9-52.5-0.2-0.4-0.1-0.5-0.1-1q0-0.2-0.3-0.4-2.1-1.1-2.5-3.4z"
        id="Layer"/>
  <path class="s18"
        d="m530.4 315q-9 9.8-12.8 15.1c-7.3 10.1-12.6 28.1 0.3 36.8 2.5 1.7 5.9 1.1 8.9 1q-5.3 10.9-5.8 23.1 0 0.3-0.1 0c-9.8-16-19.5-28.1-19.2-47.5 0.2-10.3 5.5-25 15.8-30q6.8-3.3 12.9 1.5z"
        id="Layer"/>
  <path class="s18"
        d="m1020.8 369.5c25.4-6.4 8.7-37-2.2-47.1q-3.6-3.3-2.1-9.5 7.8-1.8 14 3.1 11.7 9.6 12.2 24.1c0.5 19-5.8 35.5-17.6 50.4q-0.1 0.1-0.2 0.1-0.1 0-0.2-0.1-0.1 0-0.2-0.1 0-0.1 0-0.2c1.1-4.5-2.6-15.8-3.7-20.7z"
        id="Layer"/>
  <path class="s16"
        d="m1016.5 312.9q-1.5 6.2 2.1 9.5c10.9 10.1 27.6 40.7 2.2 47.1q-2.1-5.2-7.6-6.5 0.2-1 1.2-1.4 0.5-0.2 0.3-0.7-3.7-9.8-6-20.1-0.1-0.1-0.1-0.1-0.2 0.1-0.3 0.1-1.2-15.7 8.2-27.9z"
        id="Layer"/>
  <path class="s15"
        d="m690.8 314.8c0.9-0.1 1.3-0.2 2.1 0.3q20 12.7 42.7 19.6-24.5-5.3-44.8-19.9z"
        id="Layer"/>
  <path class="s16"
        d="m530.4 315q5.9 12.7 6.1 26.8c-2.6 6.8-2.6 14-6.3 20.3q-0.1 0.1-0.1 0.3 0 0.1 0.1 0.3 0.1 0.1 0.3 0.1 0.2 0 0.3-0.1c4.4-2.5 3.6-4.7 4.2-9q0-0.2 0.2-0.2 0.2 0 0.3 0 0.6 0 0.7 0.5l0.3 1.7c-0.4 2 0.2 5.9-2.3 6.8q-4.7 1.7-7.4 5.4c-3 0.1-6.4 0.7-8.9-1-12.9-8.7-7.6-26.7-0.3-36.8q3.8-5.3 12.8-15.1z"
        id="Layer"/>
  <path class="s16"
        d="m421.5 325.5q1.2 14.6 0.4 29.3-1-14.7-0.4-29.3z"
        id="Layer"/>
  <path class="s17"
        d="m460.5 327.9l16.8 6.4q0.3 0.2 0.6 0l0.3-0.3c-0.4 53.6 33.6 78.6 70.2 107.9q2.9 2.4 11.6 12.8c3.7 4.3 6.2 5.9 11.5 7q0.8 0.1 1 1-3 2.4-7.5 1.8c-26.1-3.6-50.9-15-73.3-28-0.7-0.5-1.6-0.8-2.1-1.5q-15.2-20.8-27.7-43.4-0.6-0.9-0.7-4.3-1.3-29.5-0.7-59.4z"
        id="Layer"/>
  <path class="s17"
        d="m1008.3 340.8q0.1-0.1 0.3-0.1 0.1 0 0.1 0.1 2.3 10.3 6 20.1 0.2 0.5-0.3 0.7-1 0.4-1.1 1.4-2.1-0.1-3.5-1.4-0.4-0.3-0.4-0.9z"
        id="Layer"/>
  <path class="s17"
        d="m536.5 341.8v13.9l-0.3-1.7q-0.1-0.5-0.7-0.5-0.1 0-0.3 0-0.2 0-0.2 0.2c-0.6 4.3 0.2 6.5-4.2 9q-0.1 0.1-0.3 0.1-0.2 0-0.3-0.1-0.1-0.2-0.1-0.3 0-0.2 0-0.3c3.8-6.3 3.8-13.5 6.4-20.4z"
        id="Layer"/>
  <path class="s15"
        d="m395 345.5q0.2 1 0.9 1.6 0.3 0.2 0.3 0.6l0.2 70.3q0 0.5-0.4 0.8-0.6 0.5-1 1.2z"
        id="Layer"/>
  <path class="s15"
        d="m653.3 351q1.2-0.2 1.8 0.2c17.5 13.5 37 23.7 58.2 30.2 1.4 0.4 6.7 2.1 6.7 3.3q-36.8-10-66.7-33.7z"
        id="Layer"/>
  <path class="s15"
        d="m810.1 356.3q-8.8 4-18.2 6.6-1.1 0.3-1.9-0.7 9.8-3.7 20.1-5.9z"
        id="Layer"/>
  <path class="s16"
        d="m1085.5 359.8q0 10.4-0.9 25.1c-0.5 9.8-3.6 14.9-9.2 24.8q-5.1 9.2-10.4 18.3-2.4 4.1-3.7 5.5l-0.1-0.9q0-0.5 0.3-0.9c4.4-6.9 7.8-13.8 12.3-21.2 4.4-7.2 9-15.5 9.7-24q1-12.9 0.8-25.9 0-0.5 0.4-0.6z"
        id="Layer"/>
  <path class="s15"
        d="m569.1 383.6c-7.3-7.4-20.2-9.9-26.8-0.6q-4.2 5.8-1.2 14.3-6.6-14.1 7.1-20.3c2.2-1 6.5-1.4 9.1-1q7.5 1.2 11.8 7.6z"
        id="Layer"/>
  <path class="s15"
        d="m987.5 377.2c-6.7 1.6-10.9 4.8-14.7 10.9-12.1 19.7-27.6 38.4-48 50.2q-17 9.8-33 16.1-16.5 6.5-32.4 14c-13.2 6.3-20.1 18-24.9 29.9q-10.6 26.5-15.7 55.5-1.8 10.3-2.3 19.5-1.1-7.7 0.5-16.1c2.5-14 5.1-27.4 9.4-40.3q4.5-13.3 10.4-26.1c4.1-9.1 9.5-17 18.7-21.5 33-16.3 65.5-24 90.5-48.9q15.1-15.1 27-34.6 4.7-7.9 14.5-8.6z"
        id="Layer"/>
  <path class="s14"
        d="m890.3 385.3l-0.5 0.6q-0.4 0.4-0.1 0.9c3.7 7.3-0.1 13.2-6.4 17-22.3 13.3-45 24.6-69.5 30.9q-18.3 4.7-37 6.7c-6 0.6-16.8 2.1-25.3 2.3q-8.1-2-11.5-10c-1.8-4.2-1.4-9.5 2.4-12.2 4-2.9 15.9-1.3 22.2-1.1q6.8 0.3 15.8-1.2 21.5-3.6 35.4-7.9c18.9-5.8 34.5-13.6 51.9-23.2 3.3-1.8 5.5-5.5 8.9-7.7 5.3-3.4 11 0 13.7 4.8z"
        id="Layer"/>
  <path class="s15"
        d="m890.3 385.3q5.8 11.8-4.5 18.5-10.1 6.5-29.3 16-38.9 19.3-85.1 23.4-12.9 1.1-19.9 0.5c8.5-0.2 19.3-1.7 25.3-2.3q18.7-2 37-6.7c24.5-6.3 47.2-17.6 69.5-30.9 6.3-3.8 10.1-9.7 6.4-17q-0.3-0.5 0.1-0.9z"
        id="Layer"/>
  <path class="s15"
        d="m1153.2 393q4.4 13.9 2.8 25.3c-2.1 14.7-9.6 24.3-19 35.5-10.3 12.2-18.9 25.7-26.8 39.4-3.2 5.5-5.5 10.8-7.7 17.3-4.8 14.9-7.8 29.3-20.3 39.9-7.4 6.2-15.3 11.6-24.3 16.9q-33.8 19.7-68.7 37.4c-7.5 3.9-15.3 11.6-25.2 16.8 0.7-2.2 16.1-12.3 18.6-13.8q13.6-8.1 27.7-15.5c19.3-10.1 38.9-20.8 56.4-31.9 11.2-7.1 23-16.9 27.8-29.5q2.3-6 8.3-24.5 1.9-6.2 8.7-17.8 5.5-9.2 14.7-22.7c7.3-10.6 16.8-19 22.9-30.6 6.6-12.5 7.7-25.9 3.5-39.5q-0.1-0.5 0-1z"
        id="Layer"/>
  <path class="s19"
        d="m424.9 431.6c-5.2-3.7-9.7-12.3-12.4-18.3-7.6-16.5 12.4-24.6 23.8-16.6 7 4.8 11.8 16.1 14.9 24.2q0.2 0.5 0 0.9c-4.5 12.5-14.5 17.9-26.3 9.8z"
        id="Layer"/>
  <path class="s15"
        d="m1119.5 393.8q-7.1 3.3-11.3 9.2-1.5 2.2-7.2 10.9 2.9-9.6 10.2-16.5c1.3-1.3 6.1-4.9 8.3-3.6z"
        id="Layer"/>
  <path class="s19"
        d="m1101 413.9q5.7-8.7 7.3-10.9 4.1-5.9 11.2-9.2c15.3-1.2 21.1 9.2 16.3 22.2-3.8 10.5-12.5 23.7-26 17.8-5-2.1-12-8.4-10.1-14.6q0.7-2.6 1.3-5.3z"
        id="Layer"/>
  <path class="s15"
        d="m689.6 469.6q-3.6-1.6-6.9-3.5c-16.6-9.2-35.4-14.3-51.7-22.6-9.3-4.7-19.9-10.9-27.3-18.3 0.5-0.7 1.2-0.6 1.9 0 9.4 8.3 21.8 16 31.7 20q25.3 10.2 41.7 17.5 5.3 2.4 10.6 6.9z"
        id="Layer"/>
  <path class="s15"
        d="m879.8 435.4q-10.6 6.1-22.1 10-4 1.3-15.4 8.4-0.4 0.2-0.8 0-0.6-0.4-1.2-0.3c12.4-7.9 24.9-12.6 39.5-18.1z"
        id="Layer"/>
  <path class="s17"
        d="m482.5 477c-1.7-3.7-3-7.3-5-10.8q-5.1-8.3-9.9-16.8c-0.9-1.7-2.3-2.8-3.8-0.9q-7.7 9.4-16.4 16.4l-5.9-9q-0.3-0.4 0.1-0.4 12.1-0.4 19.3-10c1.9-2.6 3.4-4.6 3.6-7.4q0-0.2 0.1-0.2 0-0.1 0.2-0.2 0.1 0 0.2 0 0.1 0.1 0.2 0.2c7.5 12.2 14.1 24.2 22.9 35.1q0.4 0.4 0 0.9-2.2 2.8-5.6 3.1z"
        id="Layer"/>
  <path class="s17"
        d="m1106 458.5q-2.9 1.7-4.2 4.9-0.1 0.3-0.3 0.5-0.2 0.2-0.5 0.4-0.3 0.1-0.6 0.1-0.3 0-0.6-0.1-13.6-5.4-18.6-19.1l3-7.1q0.3-0.6 0.6 0c4.9 8.3 12.4 16.6 22.5 18.2q0.5 0 0.2 0.5z"
        id="Layer"/>
  <path class="s15"
        d="m583.6 617.4q-16.6-11.2-21.9-13.8-25.5-12.5-50.6-25.8-7.1-3.8-14.6-8.5c-10-6.4-19-11.8-28.8-20.5-14.2-12.5-16.9-30.1-23.9-47.3-1.9-4.7-5.3-9.4-8-13.8-4.7-8-10.3-15.6-15.4-23.5-5.2-8-10.7-14.2-16.9-21q2.1 0.9 3.6 2.7c3.7 4.3 7.8 8 10.9 12.8 5.2 7.9 11.2 15.5 15.5 23.8q0.3 0.5 0.6 0.7c1.3 0.9 1.4 2.1 2.1 3.1q4.1 6 7.5 12.5c2.8 5.2 4.8 11.9 7.6 17.8q0.8 1.9 1.6 5.2c1.3 5.7 5.1 12 8.1 17.2q0.8 1.3 2.3 3 9.5 10.3 18.2 16.3c23.6 16 50 28.9 75.8 41.8 3.6 1.8 7.5 4.3 11.4 6.2q8.4 4.3 14.9 11.1z"
        id="Layer"/>
  <path class="s15"
        d="m495.5 443.5c4.6 6.4 9 13 13.8 19.3 10.9 14.6 21.2 31.9 37.2 42.8q9 6 17.8 10.3 16 7.8 41.2 19.2c20.1 9.1 40.3 14.7 47.4 38.4q-3.1-5.1-6.1-10.2c-5.1-8.7-14.8-15.5-23.7-19.1-13-5.4-25.2-11.7-38.1-16.7q-2.1-0.7-4.4-2.1c-5.7-3.3-13-6.1-18.7-9.1-4.9-2.6-10.4-5.3-14.7-8.1-14.2-9.4-23.1-22.7-32.6-36.5-0.9-1.3-2.1-1.9-2.9-3.1q-3.8-5.8-7.9-11.4-1-1.2-1.6-1.7-0.4-0.3-0.6-0.7-2.3-4.4-5.7-7.9-0.4-0.3-0.4-0.9z"
        id="Layer"/>
  <path class="s19"
        d="m1081.2 445.2q5 13.7 18.6 19.1 0.3 0.1 0.6 0.1 0.3 0 0.6-0.1 0.3-0.2 0.5-0.4 0.2-0.2 0.3-0.5 1.3-3.2 4.2-4.9-11.2 16.5-20 34.3-0.2 0.5-0.6 0.2l-20.8-17.5q-0.1-0.1-0.2-0.2 0-0.2-0.1-0.3 0-0.2 0-0.4 0.1-0.1 0.1-0.3z"
        id="Layer"/>
  <path class="s15"
        d="m820.2 476.5l0.4 1.1q0.1 0.5-0.1 0.9c-12.6 23-19.8 51.5-22.8 77.7-0.3 2.2-0.1 4.4-0.4 6.4q-1.7 12.4-1.8 20.2-0.2 28 0.3 90.9 0 5.2 1.4 8.3c2 4.7 6.8 10.8 12.6 10.8q33.5 0.2 67 0.2 0.5 0 0.9-0.3 1.7-1.2 3.6-0.6-2.6 1.9-4.3 1.9-31.3 0.2-62.7 0.5c-9.1 0.1-15.8-4.5-19-12.9q-1.4-3.8-1.3-12.4 0.3-43 0.3-86 0-9 1.7-25.1 1.2-10.4 3.1-19.7c4.4-21.2 10.6-44.1 21.1-61.9z"
        id="Layer"/>
  <path class="s15"
        d="m726.5 478.3q6.4 11.2 10.3 22.4c10.7 31.1 16.2 61.6 15.4 94.3-0.4-1.9 0.3-5-0.8-6.1q-0.3-0.3-0.3-0.8l-0.3-22q0-0.5-0.3-0.7c-0.6-0.5-2.2-15.8-2.6-17.9q-4-20.1-8.7-34.8-4.1-13.1-12.7-34.4z"
        id="Layer"/>
  <path class="s17"
        d="m587 552c-2.9 5.1-9.8 3.3-14.3 2.1q-39.9-10.9-68.8-40.3-4.9-4.9-10.3-9.4c-1.4-1.1-2.7-1.1-4.1-0.2q-1.8-0.7-1.5-2.7 6.5-5.4 10.8-11.9 0.7-1 1.4-0.1c13.9 16.8 26.4 30.5 45.8 41.2q21.6 12 40.6 20.5 0.5 0.2 0.4 0.8z"
        id="Layer"/>
  <path class="s17"
        d="m1050.5 490.8c-0.4 0.9-0.4 1.8 0.2 2.7q3.8 5.4 6.7 11.1-3.2 1-4.8 2.7-14 15.1-30.7 27.1-0.7 0.6-1.4 1.8-2.1-0.1-2.7 0.3c-13.1 7.5-22.6 12.3-36.3 16.7-5.2 1.6-13.1 4.2-14.8-2.5q25.1-11.8 40.7-21.5c16.8-10.5 28.8-23.8 41.6-39q0.3-0.4 0.7-0.1z"
        id="Layer"/>
  <path class="s18"
        d="m1050.5 490.8c8.8 7.3 16.8 14.9 26.8 20.7q0.4 0.3 0.3 0.8c-0.5 5.4-2.3 15-8.1 17.7 0.9-7.9 0.7-12.6-5-18.1q-3.7-3.7-7.1-7.3-2.9-5.7-6.7-11.1c-0.6-0.9-0.6-1.8-0.2-2.8z"
        id="Layer"/>
  <path class="s18"
        d="m488 501.5q-0.3 2 1.5 2.8-3 3.3-5.6 6.8c-3.9 5.1-3.1 12-2.7 18q-2.5-0.3-3.8-2.8-3.4-6.2-5-13-0.2-0.5 0.2-0.8z"
        id="Layer"/>
  <path class="s19"
        d="m1020.5 536.3q1.1 3 4.4 3.3 0.5 0.1 0.8-0.3c2.5-2.1 7.2-5.5 8.5-0.3 0.5 1.8 0.3 3.4 1.5 4.8 1.2 1.4 2.8 2.2 3.1 4.2 0.2 2-3 4.5-4.7 4.9q-5.2 1.2-8.1 5.8l-0.5 1.1q-7.8 5.1-16.2 9.1-14.4 6.9-33.1 16.7-12.4 6.5-21 16.9-0.3 0.4-0.6 0c-5.4-10-20.7-19.7-30.9-24v-1q0.1-1.2-1.4-2 4.7-6.1 9.6-8.8 14.1-7.9 34.9-16c1.6 6.7 9.5 4.1 14.7 2.5 13.7-4.4 23.2-9.2 36.3-16.7q0.6-0.4 2.7-0.2z"
        id="Layer"/>
  <path class="s16"
        d="m1043.2 550c-3.3 2.6-7.4 4.2-10.7 6.3q-3.4 2-7 3.5l0.5-1.1c1.1 0.4 8.2-4.4 9.5-5.2 2.4-1.6 5.1-2.4 7.7-3.5z"
        id="Layer"/>
  <path class="s18"
        d="m923.7 577.5v1q-5 1.7-3.4-0.2z"
        id="Layer"/>
  <path class="s15"
        d="m664.5 579.1q31.6 10.1 42.3 41.6 1.3 3.6 1.7 8.8c-0.6 0.4-1 0-1.2-0.6-2-10.7-5.9-18-11.9-27.2-3.5-5.4-9.1-11-14.1-13.5q-8.5-4.5-16.8-9.1z"
        id="Layer"/>
  <path class="s20"
        d="m630 670.8q0.5-0.6 0.6-1.1 0.2-0.6-0.3-0.9c-9.9-6-13.6-12.4-16.9-23.5q-0.4-1.5-2.4-2c-4.6-25 15.3-46.4 39.8-45.6q14.4 0.4 24.3 10.9c8.8 9.2 11.7 18.1 11.5 30.8-0.4 15.9-9.4 27.5-24 33.2-10.9 4.3-22.2 4.4-32.6-1.8z"
        id="Layer"/>
  <path class="s20"
        d="m890.1 672.5c-19.6-8.1-28.6-32.2-20.1-51 7-15.5 22.3-24.9 39.6-23.3 13.7 1.3 26.6 11.7 31.5 24.5 13.3 34.5-17.6 63.6-51 49.8z"
        id="Layer"/>
  <path class="s15"
        d="m964 621.8c2.8 17.6 2.5 34.7-7.6 50.2-11.1 17.2-31.6 28.9-52.4 26.9q-10.4-1-19.9-5.9 8.9 3 18.2 4.3 7.9 1.1 14.8-0.2c29.1-5.4 47.6-30.1 47.5-59.4-0.1-4.2-2.4-12.1-0.6-15.9z"
        id="Layer"/>
  <path class="s18"
        d="m730.8 632q0.8 2.5 0.4 5.5-10.6 0.9-21.2 0.4-0.5-0.1-0.7 0.4l-0.3 0.7q-0.5-3.4 0.3-6.8z"
        id="Layer"/>
  <path class="s20"
        d="m731.2 637.5l0.3 33.6q0.1 0.4-0.1 0.7-0.1 0.3-0.3 0.6-0.3 0.2-0.6 0.3-0.3 0.2-0.7 0.2l-16.1 0.4-4.3-0.1q-0.5 0-0.5-0.5 0.5-14 0.6-27.9c0-1.8-0.8-3.7-0.5-5.8l0.3-0.7q0.2-0.5 0.7-0.4 10.6 0.5 21.2-0.4z"
        id="Layer"/>
  <path class="s18"
        d="m709 639c-0.3 2.1 0.5 4 0.5 5.8q-0.1 13.9-0.6 27.9 0 0.5 0.5 0.5l4.3 0.1-18.6 0.2q-0.2 0-0.3-0.1-0.2-0.1-0.2-0.3-0.1-0.2 0-0.3 0-0.2 0.1-0.3c7.6-6.5 12.5-23.9 14.3-33.5z"
        id="Layer"/>
  <path class="s18"
        d="m630 670.8q-16-9.2-19-27.5 2 0.5 2.4 2c3.3 11.1 7 17.5 16.9 23.5q0.5 0.3 0.3 0.9-0.1 0.5-0.6 1.1z"
        id="Layer"/>
  <path class="s17"
        d="m844 656.2l2.1 0.1q0.5 0 0.7 0.5 3.1 8.3 8.6 15.1 0.4 0.6-0.2 0.6h-3.2c2-1.1-0.7-4-1.6-4.9q-0.4-0.4-0.9-0.4c-2.6 0.1-5.2-0.4-7.6-0.4q-12.7 0.1-25.4 0.4-1-4.6 0-9.2 0.4-1.5 1.4-1.6 9.9-0.5 26.1-0.2z"
        id="Layer"/>
  <path class="s16"
        d="m852 672.5q-17.5 0.3-34.9-0.5-0.4 0-0.4-0.4l-0.2-4.3q12.7-0.4 25.4-0.5c2.4 0 5 0.5 7.6 0.4q0.5 0 0.9 0.4c0.9 0.9 3.6 3.8 1.6 4.9z"
        id="Layer"/>
  <path class="s15"
        d="m752 678.5c-1 9.8-7.4 15.5-17 15.5-22.6 0.1-44-0.4-68 0.2q1.6-1 2.5-1 32.4-0.4 64.8-0.1 10.8 0.1 15.5-9.3 0.6-1.2 2.2-5.3z"
        id="Layer"/>
  <path class="s15"
        d="m615.8 689.3c10.1 3.7 17.8 7.4 29 7.5q3.2 0.1 7.7-1.2 4.9-1.3 9.9-2.2-8.2 4.3-12.9 4.6-18.4 1.2-33.7-8.7z"
        id="Layer"/>
  <text id="Singularity Robotics"
        style="transform: matrix(1,0,0,1,-6.061,867.654)">
    <tspan class="t21"
           x="0"
           y="0">Singularity Robotics
    </tspan>
    <tspan class="t21"
           y="0">
    </tspan>
  </text>
</svg>
